<?xml version="1.0" encoding="utf-8"?>
<svg version="1.1" id="Layer_1" x="0px" y="0px" width="64px" height="64px" enable-background="" fill="none" xmlns="http://www.w3.org/2000/svg">
  <g transform="matrix(0.528231, 0, 0, 0.528231, -112.066643, -10.372728)">
    <path fill="#009444" stroke="#369E47" stroke-miterlimit="10" d="M 277.528 40.779 C 296.348 52.602 302.45 72.494 302.45 72.494 C 309.161 87.597 300.767 112.303 300.767 112.303 C 316.719 129.96 311.257 133.488 311.257 133.488 C 307.591 140.324 303.683 135.102 303.683 135.102 C 302.935 121.756 294.956 116.006 294.956 116.006 C 281.959 116.213 267.893 105.937 267.893 105.937 C 253.254 96.25 252.753 69.861 252.753 69.861 C 247.997 35.528 233.309 23.423 233.309 23.423 C 253.889 26.022 277.526 40.779 277.528 40.779 Z M 241.167 27.808 C 240.942 28.135 241.025 28.582 241.351 28.808 L 241.394 28.837 C 242.935 29.898 244.411 31.273 245.769 32.669 C 247.134 34.083 248.413 35.583 249.614 37.144 C 252.015 40.268 254.125 43.616 255.992 47.091 C 259.727 54.047 262.517 61.487 264.661 69.089 C 265.195 70.991 265.692 72.904 266.146 74.827 C 266.688 76.952 267.363 78.851 268.125 80.795 C 269.655 84.642 271.553 88.347 273.838 91.841 C 278.375 98.808 284.677 104.973 292.493 108.685 L 292.526 108.701 C 292.562 108.718 292.599 108.734 292.636 108.75 C 294.102 109.366 295.791 108.676 296.407 107.209 C 297.023 105.742 296.334 104.053 294.867 103.437 C 288.023 100.563 282.16 95.414 277.696 89.193 C 275.455 86.083 273.526 82.71 271.938 79.185 C 271.156 77.439 270.414 75.584 269.889 73.85 C 269.335 71.9 268.738 69.962 268.102 68.036 C 265.553 60.34 262.346 52.829 258.182 45.848 C 256.102 42.36 253.776 39.012 251.153 35.901 C 249.841 34.347 248.45 32.856 246.971 31.453 C 245.471 30.055 243.952 28.739 242.139 27.607 C 241.814 27.406 241.385 27.492 241.167 27.808 Z"/>
  </g>
</svg>