<?xml version="1.0" encoding="utf-8"?>
<svg version="1.1" id="Layer_1" x="0px" y="0px" width="360px" height="288px" viewBox="0 0 360 288" enable-background="new 0 0 360 288" xmlns="http://www.w3.org/2000/svg">
  <line fill="#009444" stroke="#009444" stroke-width="5" stroke-miterlimit="10" x1="23.587" y1="208.097" x2="338.44" y2="208.097"/>
  <line fill="none" x1="23.992" y1="258.84" x2="375.953" y2="255.912"/>
  <line fill="#39B54A" stroke="#009444" stroke-width="5" stroke-miterlimit="10" x1="23.671" y1="254.696" x2="338.44" y2="254.696"/>
  <path fill="#F69D9A" d="M 37.537 194.387 L 37.537 166.139 C 42.367 167.993 46.598 168.922 50.222 168.922 C 61.795 168.922 69.296 162.981 72.73 151.104 C 66.499 154.462 60.394 156.143 54.419 156.143 C 45.578 156.143 38.3 153.146 32.577 147.148 C 26.856 141.15 23.993 133.518 23.993 124.246 L 23.993 69.75 L 59.665 69.75 L 59.665 116.336 C 59.665 121.494 62.016 124.072 66.723 124.072 C 71.235 124.072 73.494 121.232 73.494 115.553 L 73.494 69.75 L 109.165 69.75 L 109.165 147.105 C 109.165 161.534 104.714 173.177 95.812 182.042 C 85.191 192.59 72.348 197.863 57.28 197.863 C 50.664 197.863 44.085 196.704 37.537 194.387 Z"/>
  <path fill="#F69D9A" d="M 139.964 66.261 C 146.945 66.261 152.932 68.773 157.92 73.798 C 162.912 78.82 165.406 84.837 165.406 91.852 C 165.406 98.968 162.878 105.028 157.823 110.035 C 152.768 115.041 146.665 117.545 139.519 117.545 C 132.373 117.545 126.261 115.032 121.19 110.011 C 116.116 104.989 113.583 98.935 113.583 91.853 C 113.583 84.643 116.117 78.574 121.19 73.649 C 126.26 68.725 132.519 66.261 139.964 66.261 Z M 139.47 84.492 C 137.491 84.492 135.813 85.21 134.43 86.641 C 133.047 88.073 132.354 89.828 132.354 91.904 C 132.354 93.946 133.053 95.689 134.455 97.139 C 135.856 98.589 137.526 99.312 139.471 99.312 C 141.446 99.312 143.134 98.589 144.535 97.139 C 145.933 95.689 146.632 93.946 146.632 91.904 C 146.632 89.828 145.942 88.072 144.559 86.641 C 143.173 85.21 141.479 84.492 139.47 84.492 Z"/>
  <path fill="#F69D9A" d="M 169.063 69.75 L 187.539 69.75 L 187.539 97.564 C 187.539 100.363 188.708 101.765 191.047 101.765 C 193.352 101.765 194.505 100.364 194.505 97.564 L 194.505 69.75 L 212.984 69.75 L 212.984 97.219 C 212.984 103.609 210.86 109.003 206.61 113.399 C 202.36 117.795 197.155 119.993 190.999 119.993 C 183.983 119.993 178.335 117.441 174.052 112.337 C 170.725 108.353 169.064 102.818 169.064 95.736 L 169.064 69.75 Z"/>
  <path fill="#F69D9A" d="M 244.03 68.566 L 244.03 88.327 C 242.748 87.603 241.579 87.24 240.525 87.24 C 237.164 87.24 235.485 89.807 235.485 94.946 L 235.485 118.315 L 217.007 118.315 L 217.007 91.389 C 217.007 84.276 218.95 78.604 222.837 74.37 C 226.724 70.139 231.909 68.023 238.398 68.023 C 239.848 68.022 241.726 68.203 244.03 68.566 Z"/>
  <path fill="#F69D9A" d="M 47.006 236.445 C 47.006 237.961 46.546 239.322 45.625 240.529 C 44.704 241.737 43.356 242.683 41.582 243.367 C 39.807 244.051 37.703 244.392 35.27 244.392 C 32.353 244.392 29.946 243.924 28.05 242.99 C 26.706 242.318 25.613 241.422 24.773 240.299 C 23.933 239.177 23.513 238.086 23.513 237.027 C 23.513 236.412 23.765 235.885 24.269 235.446 C 24.773 235.008 25.415 234.788 26.195 234.788 C 26.826 234.788 27.361 234.96 27.798 235.302 C 28.235 235.644 28.608 236.151 28.917 236.823 C 29.293 237.621 29.7 238.287 30.137 238.822 C 30.574 239.358 31.189 239.8 31.982 240.147 C 32.775 240.495 33.817 240.668 35.107 240.668 C 36.882 240.668 38.324 240.318 39.433 239.617 C 40.542 238.917 41.097 238.043 41.097 236.994 C 41.097 236.163 40.798 235.487 40.2 234.969 C 39.602 234.451 38.829 234.055 37.881 233.781 C 36.933 233.507 35.666 233.217 34.08 232.91 C 31.955 232.488 30.178 231.995 28.746 231.431 C 27.314 230.867 26.178 230.098 25.338 229.123 C 24.498 228.149 24.078 226.938 24.078 225.491 C 24.078 224.113 24.522 222.888 25.409 221.817 C 26.296 220.747 27.58 219.923 29.261 219.347 C 30.942 218.772 32.918 218.485 35.19 218.485 C 37.005 218.485 38.575 218.675 39.899 219.057 C 41.223 219.439 42.322 219.946 43.196 220.578 C 44.07 221.211 44.708 221.875 45.112 222.569 C 45.515 223.264 45.717 223.942 45.717 224.602 C 45.717 225.206 45.465 225.75 44.961 226.235 C 44.457 226.719 43.828 226.962 43.076 226.962 C 42.39 226.962 41.869 226.816 41.513 226.525 C 41.157 226.235 40.77 225.759 40.353 225.098 C 39.815 224.153 39.17 223.414 38.417 222.885 C 37.664 222.355 36.454 222.09 34.787 222.09 C 33.241 222.09 31.994 222.378 31.046 222.953 C 30.098 223.528 29.625 224.221 29.625 225.029 C 29.625 225.531 29.786 225.964 30.109 226.328 C 30.432 226.693 30.875 227.006 31.44 227.267 C 32.004 227.53 32.576 227.735 33.154 227.882 C 33.732 228.03 34.687 228.247 36.018 228.532 C 37.685 228.862 39.194 229.226 40.545 229.626 C 41.896 230.024 43.045 230.509 43.993 231.078 C 44.941 231.648 45.68 232.368 46.211 233.24 C 46.74 234.112 47.006 235.181 47.006 236.445 Z"/>
  <path fill="#F69D9A" d="M 72.166 221.561 L 72.166 230.344 L 83.923 219.953 C 84.487 219.452 84.968 219.082 85.365 218.843 C 85.761 218.604 86.289 218.485 86.948 218.485 C 87.808 218.485 88.504 218.698 89.035 219.126 C 89.566 219.553 89.831 220.074 89.831 220.689 C 89.831 221.43 89.381 222.165 88.48 222.893 L 81.2 228.739 L 89.589 238.925 C 90.18 239.631 90.624 240.249 90.92 240.779 C 91.215 241.309 91.363 241.825 91.363 242.326 C 91.363 242.885 91.104 243.369 90.587 243.779 C 90.07 244.189 89.367 244.394 88.48 244.394 C 87.647 244.394 86.968 244.243 86.443 243.941 C 85.918 243.639 85.475 243.238 85.112 242.736 C 84.749 242.235 84.426 241.779 84.144 241.369 L 77.066 232.14 L 72.166 236.122 L 72.166 241.3 C 72.166 242.349 71.884 243.126 71.319 243.633 C 70.755 244.14 70.028 244.394 69.141 244.394 C 68.63 244.394 68.139 244.28 67.669 244.052 C 67.198 243.823 66.835 243.516 66.58 243.128 C 66.392 242.81 66.277 242.44 66.237 242.018 C 66.196 241.597 66.176 240.987 66.176 240.189 L 66.176 221.562 C 66.176 220.537 66.441 219.767 66.972 219.254 C 67.503 218.741 68.225 218.485 69.14 218.485 C 70.04 218.485 70.77 218.738 71.328 219.245 C 71.887 219.752 72.166 220.523 72.166 221.561 Z"/>
  <path fill="#F69D9A" d="M 110.532 241.299 L 110.532 221.561 C 110.532 220.536 110.807 219.766 111.359 219.253 C 111.911 218.74 112.623 218.484 113.497 218.484 C 114.397 218.484 115.127 218.737 115.685 219.244 C 116.243 219.752 116.522 220.523 116.522 221.56 L 116.522 241.298 C 116.522 242.335 116.243 243.11 115.685 243.622 C 115.127 244.135 114.397 244.392 113.497 244.392 C 112.636 244.392 111.927 244.132 111.37 243.614 C 110.811 243.097 110.532 242.324 110.532 241.299 Z"/>
  <path fill="#F69D9A" d="M 143.418 221.525 L 154.933 236.291 L 154.933 221.389 C 154.933 220.421 155.178 219.695 155.669 219.21 C 156.16 218.727 156.821 218.484 157.655 218.484 C 158.515 218.484 159.194 218.726 159.692 219.21 C 160.19 219.694 160.438 220.421 160.438 221.389 L 160.438 241.094 C 160.438 243.293 159.362 244.393 157.211 244.393 C 156.673 244.393 156.19 244.327 155.759 244.196 C 155.328 244.065 154.925 243.857 154.549 243.573 C 154.173 243.288 153.823 242.955 153.5 242.573 C 153.177 242.191 152.854 241.802 152.532 241.402 L 141.3 226.807 L 141.3 241.487 C 141.3 242.444 141.038 243.169 140.513 243.658 C 139.988 244.147 139.316 244.393 138.496 244.393 C 137.649 244.393 136.97 244.145 136.459 243.649 C 135.948 243.154 135.692 242.433 135.692 241.487 L 135.692 222.159 C 135.692 221.339 135.799 220.695 136.015 220.227 C 136.27 219.715 136.694 219.296 137.286 218.971 C 137.877 218.647 138.516 218.485 139.202 218.485 C 139.74 218.485 140.201 218.559 140.583 218.707 C 140.966 218.855 141.302 219.055 141.591 219.306 C 141.88 219.556 142.176 219.881 142.479 220.28 C 142.782 220.678 143.095 221.093 143.418 221.525 Z"/>
  <path fill="#F69D9A" d="M 205.965 236.053 C 205.965 236.85 205.733 237.713 205.269 238.642 C 204.805 239.571 204.076 240.482 203.081 241.376 C 202.087 242.271 200.815 242.997 199.27 243.555 C 197.723 244.113 195.922 244.393 193.866 244.393 C 192.305 244.393 190.887 244.267 189.61 244.016 C 188.333 243.766 187.173 243.375 186.131 242.846 C 185.089 242.316 184.131 241.618 183.258 240.752 C 182.478 239.966 181.813 239.086 181.261 238.111 C 180.709 237.137 180.296 236.097 180.021 234.992 C 179.746 233.888 179.608 232.714 179.608 231.472 C 179.608 229.454 179.954 227.65 180.647 226.054 C 181.338 224.459 182.331 223.095 183.621 221.961 C 184.911 220.827 186.425 219.964 188.159 219.372 C 189.893 218.779 191.741 218.483 193.704 218.483 C 196.097 218.483 198.227 218.887 200.097 219.696 C 201.966 220.506 203.398 221.505 204.392 222.695 C 205.388 223.886 205.884 225.01 205.884 226.071 C 205.884 226.651 205.643 227.165 205.159 227.608 C 204.675 228.053 204.09 228.275 203.404 228.275 C 202.637 228.275 202.063 228.122 201.679 227.813 C 201.296 227.506 200.869 226.976 200.399 226.224 C 199.62 224.983 198.702 224.053 197.646 223.438 C 196.59 222.823 195.29 222.516 193.745 222.516 C 191.284 222.516 189.325 223.308 187.866 224.891 C 186.407 226.475 185.678 228.725 185.678 231.641 C 185.678 233.59 186 235.21 186.645 236.503 C 187.291 237.797 188.206 238.762 189.388 239.4 C 190.571 240.038 191.955 240.357 193.542 240.357 C 195.263 240.357 196.719 239.995 197.908 239.271 C 199.097 238.548 199.995 237.486 200.599 236.083 C 200.855 235.423 201.171 234.885 201.547 234.469 C 201.923 234.053 202.528 233.845 203.362 233.845 C 204.074 233.845 204.686 234.056 205.196 234.478 C 205.709 234.901 205.965 235.426 205.965 236.053 Z"/>
  <path fill="#F69D9A" d="M 246.168 241.128 L 244.757 237.983 L 232.738 237.983 L 231.326 241.196 C 230.775 242.45 230.305 243.296 229.915 243.734 C 229.525 244.172 228.887 244.392 227.999 244.392 C 227.246 244.392 226.58 244.158 226.002 243.691 C 225.424 243.224 225.135 242.694 225.135 242.101 C 225.135 241.759 225.203 241.407 225.338 241.042 C 225.471 240.677 225.693 240.17 226.002 239.521 L 233.565 223.251 C 233.78 222.784 234.04 222.223 234.342 221.567 C 234.644 220.913 234.967 220.369 235.309 219.935 C 235.653 219.502 236.103 219.152 236.661 218.884 C 237.22 218.616 237.908 218.483 238.728 218.483 C 239.561 218.483 240.256 218.617 240.815 218.884 C 241.373 219.152 241.823 219.496 242.167 219.918 C 242.509 220.339 242.798 220.792 243.034 221.276 C 243.268 221.76 243.568 222.407 243.93 223.215 L 251.655 239.382 C 252.259 240.612 252.561 241.507 252.561 242.066 C 252.561 242.646 252.276 243.179 251.705 243.664 C 251.134 244.147 250.444 244.391 249.638 244.391 C 249.167 244.391 248.765 244.319 248.429 244.177 C 248.092 244.034 247.81 243.841 247.581 243.596 C 247.352 243.351 247.107 242.975 246.845 242.468 C 246.582 241.963 246.357 241.516 246.168 241.128 Z M 234.31 234.172 L 243.143 234.172 L 238.687 223.833 L 234.31 234.172 Z"/>
  <path fill="#F69D9A" d="M 279.818 233.25 L 277.72 233.25 L 277.72 241.299 C 277.72 242.359 277.445 243.139 276.894 243.641 C 276.342 244.142 275.623 244.393 274.736 244.393 C 273.781 244.393 273.043 244.13 272.517 243.606 C 271.994 243.083 271.731 242.314 271.731 241.299 L 271.731 222.022 C 271.731 220.928 272.02 220.136 272.598 219.647 C 273.176 219.157 274.111 218.912 275.402 218.912 L 285.142 218.912 C 286.486 218.912 287.634 218.961 288.589 219.058 C 289.544 219.155 290.405 219.351 291.171 219.648 C 292.099 219.978 292.919 220.451 293.632 221.066 C 294.343 221.681 294.884 222.396 295.255 223.211 C 295.624 224.026 295.81 224.889 295.81 225.801 C 295.81 227.669 295.187 229.161 293.945 230.278 C 292.701 231.395 290.814 232.187 288.287 232.654 C 289.35 233.133 290.365 233.84 291.332 234.773 C 292.301 235.708 293.164 236.702 293.924 237.755 C 294.684 238.808 295.276 239.76 295.699 240.609 C 296.123 241.459 296.334 242.043 296.334 242.361 C 296.334 242.692 296.209 243.019 295.961 243.343 C 295.713 243.668 295.373 243.924 294.943 244.113 C 294.511 244.301 294.015 244.395 293.451 244.395 C 292.777 244.395 292.213 244.26 291.756 243.993 C 291.299 243.726 290.906 243.387 290.576 242.976 C 290.248 242.566 289.801 241.962 289.236 241.164 L 286.836 237.78 C 285.975 236.539 285.205 235.592 284.527 234.943 C 283.847 234.294 283.158 233.849 282.459 233.61 C 281.762 233.369 280.881 233.25 279.818 233.25 Z M 283.246 222.723 L 277.721 222.723 L 277.721 229.61 L 283.086 229.61 C 284.524 229.61 285.734 229.505 286.715 229.294 C 287.695 229.084 288.445 228.725 288.963 228.218 C 289.481 227.711 289.74 227.013 289.74 226.124 C 289.74 225.43 289.531 224.816 289.115 224.287 C 288.697 223.757 288.119 223.361 287.381 223.099 C 286.682 222.848 285.303 222.723 283.246 222.723 Z"/>
  <path fill="#F69D9A" d="M 335.063 222.824 L 321.514 222.824 L 321.514 228.976 L 333.989 228.976 C 334.907 228.976 335.593 229.151 336.046 229.497 C 336.497 229.845 336.724 230.304 336.724 230.873 C 336.724 231.443 336.501 231.907 336.056 232.266 C 335.611 232.625 334.921 232.804 333.99 232.804 L 321.515 232.804 L 321.515 239.931 L 335.529 239.931 C 336.474 239.931 337.187 240.117 337.666 240.487 C 338.146 240.857 338.385 241.349 338.385 241.965 C 338.385 242.558 338.147 243.039 337.666 243.409 C 337.187 243.78 336.475 243.965 335.529 243.965 L 319.187 243.965 C 317.876 243.965 316.935 243.72 316.361 243.231 C 315.789 242.741 315.502 241.949 315.502 240.855 L 315.502 222.022 C 315.502 221.293 315.629 220.698 315.887 220.236 C 316.143 219.775 316.545 219.439 317.092 219.228 C 317.639 219.017 318.336 218.912 319.188 218.912 L 335.065 218.912 C 336.024 218.912 336.735 219.092 337.202 219.45 C 337.667 219.809 337.901 220.279 337.901 220.86 C 337.901 221.453 337.667 221.928 337.202 222.287 C 336.732 222.646 336.021 222.824 335.063 222.824 Z"/>
  <path fill="#9561A8" d="M 168.715 125.674 L 187.19 125.674 L 187.19 153.491 C 187.19 156.291 188.359 157.689 190.698 157.689 C 193.003 157.689 194.157 156.291 194.157 153.491 L 194.157 125.674 L 212.636 125.674 L 212.636 153.143 C 212.636 159.535 210.511 164.927 206.262 169.323 C 202.012 173.722 196.811 175.92 190.65 175.92 C 183.635 175.92 177.987 173.368 173.704 168.261 C 170.376 164.278 168.716 158.745 168.716 151.662 L 168.716 125.674 Z"/>
  <path fill="#9561A8" d="M 223.033 195.83 L 223.033 179.772 C 225.537 180.826 227.725 181.353 229.603 181.353 C 235.598 181.353 239.484 177.977 241.261 171.224 C 238.034 173.135 234.871 174.091 231.776 174.091 C 227.197 174.091 223.427 172.388 220.463 168.978 C 217.498 165.571 216.018 161.23 216.018 155.96 L 216.018 124.983 L 234.495 124.983 L 234.495 151.463 C 234.495 154.397 235.712 155.859 238.151 155.859 C 240.49 155.859 241.659 154.247 241.659 151.02 L 241.659 124.983 L 260.135 124.983 L 260.135 168.952 C 260.135 177.152 257.83 183.774 253.22 188.814 C 247.72 194.806 241.068 197.804 233.261 197.804 C 229.835 197.806 226.425 197.146 223.033 195.83 Z"/>
  <path fill="#9561A8" d="M 299.252 126.674 L 299.252 146.142 C 296.651 146.142 294.865 146.626 293.892 147.597 C 292.921 148.568 292.304 150.489 292.041 153.355 C 291.184 162.871 287.496 169.589 280.972 173.509 C 277.517 175.552 272.608 176.574 266.252 176.574 L 263.682 176.574 L 263.682 157.01 L 264.521 157.01 C 267.485 157.01 269.604 156.393 270.871 155.156 C 272.138 153.919 272.871 151.756 273.069 148.66 C 273.332 143.621 273.801 140.082 274.476 138.04 C 275.154 135.998 276.528 133.971 278.604 131.962 C 282.224 128.439 287.249 126.674 293.669 126.674 L 299.252 126.674 Z"/>
  <path fill="#9561A8" d="M 338.44 126.674 L 338.44 146.142 C 335.836 146.142 334.05 146.626 333.08 147.597 C 332.11 148.568 331.489 150.489 331.226 153.355 C 330.369 162.871 326.681 169.589 320.16 173.509 C 316.702 175.552 311.796 176.574 305.436 176.574 L 302.869 176.574 L 302.869 157.01 L 303.709 157.01 C 306.674 157.01 308.789 156.393 310.056 155.156 C 311.327 153.92 312.059 151.756 312.257 148.66 C 312.52 143.621 312.989 140.082 313.664 138.04 C 314.339 135.998 315.713 133.971 317.788 131.962 C 321.412 128.439 326.434 126.674 332.857 126.674 L 338.44 126.674 Z"/>
  <path fill="#9561A8" d="M 51.532 231.398 C 51.532 230.008 52.025 228.818 53.011 227.826 C 53.996 226.836 55.184 226.34 56.574 226.34 C 57.975 226.34 59.172 226.833 60.163 227.819 C 61.154 228.805 61.65 229.998 61.65 231.399 C 61.65 232.8 61.154 233.994 60.163 234.979 C 59.172 235.965 57.981 236.458 56.591 236.458 C 55.19 236.458 53.996 235.966 53.011 234.979 C 52.024 233.993 51.532 232.8 51.532 231.398 Z"/>
  <path fill="#9561A8" d="M 95.889 231.318 C 95.889 229.928 96.382 228.738 97.367 227.746 C 98.352 226.756 99.54 226.26 100.93 226.26 C 102.331 226.26 103.528 226.753 104.519 227.739 C 105.51 228.725 106.006 229.918 106.006 231.319 C 106.006 232.72 105.51 233.914 104.519 234.899 C 103.528 235.885 102.337 236.378 100.947 236.378 C 99.546 236.378 98.352 235.886 97.366 234.899 C 96.382 233.913 95.889 232.72 95.889 231.318 Z"/>
  <path fill="#9561A8" d="M 121.048 231.398 C 121.048 230.008 121.541 228.818 122.527 227.826 C 123.512 226.836 124.7 226.34 126.09 226.34 C 127.491 226.34 128.688 226.833 129.679 227.819 C 130.67 228.805 131.166 229.998 131.166 231.399 C 131.166 232.8 130.67 233.994 129.679 234.979 C 128.688 235.965 127.497 236.458 126.107 236.458 C 124.706 236.458 123.512 235.966 122.527 234.979 C 121.541 233.993 121.048 232.8 121.048 231.398 Z"/>
  <path fill="#9561A8" d="M 210.491 231.398 C 210.491 230.008 210.983 228.818 211.97 227.826 C 212.954 226.836 214.142 226.34 215.533 226.34 C 216.934 226.34 218.131 226.833 219.122 227.819 C 220.113 228.805 220.609 229.998 220.609 231.399 C 220.609 232.8 220.113 233.994 219.122 234.979 C 218.131 235.965 216.939 236.458 215.551 236.458 C 214.149 236.458 212.955 235.966 211.971 234.979 C 210.983 233.993 210.491 232.8 210.491 231.398 Z"/>
  <path fill="#9561A8" d="M 257.087 231.398 C 257.087 230.008 257.579 228.818 258.566 227.826 C 259.55 226.836 260.739 226.34 262.129 226.34 C 263.531 226.34 264.727 226.833 265.719 227.819 C 266.709 228.804 267.205 229.998 267.205 231.399 C 267.205 232.8 266.709 233.994 265.719 234.979 C 264.727 235.965 263.536 236.458 262.147 236.458 C 260.746 236.458 259.551 235.966 258.567 234.979 C 257.579 233.993 257.087 232.8 257.087 231.398 Z"/>
  <path fill="#9561A8" d="M 300.86 231.398 C 300.86 230.008 301.352 228.818 302.339 227.826 C 303.323 226.836 304.511 226.34 305.902 226.34 C 307.304 226.34 308.5 226.833 309.492 227.819 C 310.482 228.804 310.978 229.998 310.978 231.399 C 310.978 232.8 310.482 233.994 309.492 234.979 C 308.5 235.965 307.31 236.458 305.92 236.458 C 304.518 236.458 303.324 235.966 302.34 234.979 C 301.352 233.993 300.86 232.8 300.86 231.398 Z"/>
  <g>
    <path fill="#9561A8" d="M143.396,153.957v16.959c-2.668,0.989-5.22,1.484-7.656,1.484c-5.962,0-11.008-2.258-15.142-6.775 c-4.133-4.516-6.2-10.037-6.2-16.563c0-7.051,2.485-13.002,7.458-17.848c4.973-4.845,11.085-7.268,18.329-7.268 c3.855,0,7.543,0.772,11.066,2.325c3.526,1.549,6.292,3.626,8.3,6.229c3.361,4.317,5.04,10.58,5.04,18.786v16.217 c0,8.802-2.494,15.947-7.485,21.435c-4.988,5.487-11.484,8.23-19.489,8.23c-2.439,0-5.517-0.608-9.238-1.827v-16.812 c2.402,1.319,4.842,1.979,7.312,1.979c3.324,0,5.895-1.097,7.705-3.288c1.81-2.193,2.717-5.33,2.717-9.418v-18.542 c0-5.175-2.091-7.763-6.273-7.763c-1.776,0-3.333,0.684-4.667,2.053c-1.334,1.366-2.003,2.942-2.003,4.721 c0,1.879,0.635,3.445,1.902,4.698c1.27,1.253,2.842,1.879,4.72,1.879C141.042,154.849,142.242,154.549,143.396,153.957z"/>
    <path fill="#9561A8" d="M125.301,176.797v17.46c1.188,0.405,2.305,0.738,3.362,1.138l0.09-16.705 C127.625,178.222,126.414,177.432,125.301,176.797z"/>
  </g>
  <path fill="#9561A8" d="M34.381,52.243c0,0.844-0.217,1.603-0.652,2.275c-0.435,0.673-1.071,1.2-1.909,1.581 s-1.832,0.571-2.98,0.571c-1.377,0-2.514-0.26-3.409-0.781c-0.635-0.374-1.15-0.874-1.547-1.5c-0.396-0.625-0.595-1.233-0.595-1.823 c0-0.343,0.119-0.636,0.357-0.881c0.238-0.244,0.541-0.367,0.909-0.367c0.298,0,0.551,0.096,0.757,0.286 c0.207,0.19,0.382,0.473,0.529,0.847c0.177,0.444,0.37,0.816,0.576,1.114c0.207,0.299,0.497,0.544,0.872,0.738 c0.374,0.193,0.866,0.29,1.476,0.29c0.838,0,1.519-0.195,2.042-0.585c0.523-0.39,0.786-0.877,0.786-1.461 c0-0.463-0.142-0.839-0.424-1.128c-0.283-0.289-0.647-0.509-1.095-0.662c-0.447-0.152-1.046-0.314-1.794-0.485 c-1.003-0.235-1.843-0.51-2.519-0.824c-0.676-0.314-1.212-0.743-1.609-1.286c-0.396-0.542-0.595-1.217-0.595-2.023 c0-0.768,0.209-1.45,0.628-2.047s1.025-1.055,1.819-1.376c0.793-0.32,1.727-0.48,2.799-0.48c0.857,0,1.598,0.106,2.223,0.319 c0.625,0.212,1.144,0.495,1.557,0.847c0.412,0.353,0.714,0.722,0.904,1.109s0.286,0.765,0.286,1.133c0,0.337-0.119,0.64-0.357,0.91 c-0.238,0.27-0.535,0.405-0.891,0.405c-0.323,0-0.569-0.081-0.738-0.243c-0.168-0.162-0.351-0.427-0.547-0.795 c-0.254-0.527-0.559-0.938-0.914-1.233c-0.355-0.295-0.927-0.443-1.714-0.443c-0.73,0-1.319,0.16-1.766,0.481 c-0.448,0.32-0.671,0.706-0.671,1.157c0,0.279,0.076,0.521,0.229,0.724s0.362,0.378,0.628,0.523 c0.267,0.146,0.536,0.261,0.809,0.343c0.273,0.083,0.724,0.204,1.353,0.362c0.787,0.184,1.5,0.387,2.137,0.609 c0.638,0.222,1.181,0.492,1.628,0.809c0.447,0.317,0.796,0.719,1.047,1.205C34.255,50.943,34.381,51.538,34.381,52.243z"/>
  <path fill="#9561A8" d="M37.914,44.892c-0.362,0-0.671-0.111-0.929-0.333c-0.257-0.222-0.386-0.537-0.386-0.943 c0-0.368,0.132-0.671,0.396-0.909c0.263-0.238,0.569-0.357,0.919-0.357c0.336,0,0.634,0.108,0.895,0.323 c0.26,0.216,0.391,0.53,0.391,0.943c0,0.4-0.127,0.712-0.381,0.938C38.564,44.779,38.262,44.892,37.914,44.892z M39.199,47.577 v7.512c0,0.521-0.124,0.914-0.371,1.181c-0.248,0.267-0.562,0.4-0.943,0.4s-0.69-0.137-0.928-0.41 c-0.238-0.273-0.357-0.663-0.357-1.171v-7.436c0-0.514,0.119-0.901,0.357-1.162c0.238-0.26,0.547-0.391,0.928-0.391 s0.695,0.13,0.943,0.391C39.075,46.752,39.199,47.114,39.199,47.577z"/>
  <path fill="#9561A8" d="M50.53,51.576v3.457c0,0.546-0.124,0.955-0.372,1.228s-0.575,0.41-0.981,0.41 c-0.394,0-0.712-0.137-0.957-0.41c-0.245-0.273-0.367-0.682-0.367-1.228v-4.142c0-0.654-0.022-1.162-0.066-1.523 c-0.045-0.362-0.166-0.659-0.362-0.89c-0.197-0.232-0.508-0.348-0.933-0.348c-0.851,0-1.411,0.292-1.681,0.876 c-0.27,0.584-0.405,1.422-0.405,2.514v3.514c0,0.54-0.122,0.947-0.367,1.223c-0.244,0.276-0.566,0.415-0.966,0.415 c-0.394,0-0.716-0.138-0.966-0.415c-0.251-0.276-0.376-0.684-0.376-1.223v-7.437c0-0.489,0.112-0.86,0.338-1.114 c0.225-0.253,0.522-0.381,0.89-0.381c0.355,0,0.652,0.119,0.89,0.357c0.238,0.238,0.357,0.566,0.357,0.985v0.248 c0.45-0.54,0.933-0.936,1.447-1.19c0.514-0.254,1.085-0.381,1.714-0.381c0.653,0,1.215,0.13,1.685,0.39s0.857,0.654,1.162,1.181 c0.438-0.533,0.908-0.928,1.409-1.186c0.501-0.257,1.057-0.385,1.666-0.385c0.711,0,1.324,0.14,1.838,0.419s0.898,0.679,1.152,1.199 c0.222,0.47,0.333,1.209,0.333,2.219v5.075c0,0.546-0.124,0.955-0.371,1.228c-0.248,0.273-0.575,0.41-0.981,0.41 c-0.394,0-0.716-0.138-0.966-0.415c-0.251-0.276-0.376-0.684-0.376-1.223v-4.371c0-0.559-0.024-1.006-0.072-1.342 c-0.047-0.336-0.176-0.619-0.385-0.848c-0.21-0.229-0.527-0.343-0.952-0.343c-0.343,0-0.668,0.102-0.976,0.305 c-0.308,0.203-0.547,0.476-0.719,0.819C50.625,49.691,50.53,50.465,50.53,51.576z"/>
  <path fill="#9561A8" d="M61.537,47.558v0.314c0.488-0.603,0.996-1.046,1.523-1.329c0.526-0.282,1.123-0.423,1.79-0.423 c0.8,0,1.536,0.206,2.209,0.619c0.672,0.413,1.204,1.016,1.595,1.809c0.39,0.793,0.585,1.733,0.585,2.818 c0,0.8-0.113,1.535-0.338,2.204c-0.226,0.67-0.535,1.231-0.928,1.686c-0.394,0.454-0.859,0.803-1.395,1.047 c-0.537,0.244-1.113,0.367-1.728,0.367c-0.743,0-1.367-0.149-1.871-0.448c-0.505-0.298-0.985-0.736-1.442-1.314v3.904 c0,1.143-0.416,1.714-1.248,1.714c-0.489,0-0.813-0.147-0.971-0.443c-0.159-0.295-0.238-0.725-0.238-1.29V47.577 c0-0.495,0.108-0.865,0.324-1.109c0.215-0.244,0.511-0.367,0.885-0.367c0.368,0,0.668,0.125,0.9,0.376 C61.42,46.728,61.537,47.088,61.537,47.558z M66.63,51.338c0-0.686-0.104-1.274-0.314-1.767c-0.209-0.492-0.5-0.87-0.871-1.133 c-0.371-0.264-0.782-0.396-1.233-0.396c-0.717,0-1.322,0.283-1.814,0.848c-0.492,0.565-0.738,1.396-0.738,2.495 c0,1.035,0.244,1.839,0.733,2.414c0.489,0.575,1.095,0.862,1.819,0.862c0.432,0,0.832-0.125,1.2-0.376 c0.368-0.251,0.663-0.627,0.886-1.128C66.519,52.655,66.63,52.049,66.63,51.338z"/>
  <path fill="#9561A8" d="M71.325,55.089V43.816c0-0.52,0.116-0.914,0.347-1.181c0.232-0.267,0.544-0.399,0.938-0.399 s0.711,0.131,0.952,0.395c0.241,0.263,0.362,0.659,0.362,1.185v11.273c0,0.527-0.122,0.922-0.367,1.186 c-0.244,0.264-0.56,0.396-0.947,0.396c-0.381,0-0.69-0.137-0.928-0.41C71.443,55.988,71.325,55.598,71.325,55.089z"/>
  <path fill="#9561A8" d="M83.864,52.024H78.78c0.006,0.59,0.125,1.111,0.357,1.562c0.231,0.451,0.54,0.79,0.923,1.019 c0.384,0.229,0.808,0.343,1.271,0.343c0.311,0,0.595-0.037,0.852-0.109c0.257-0.073,0.506-0.188,0.748-0.343 c0.241-0.156,0.463-0.322,0.666-0.5s0.467-0.419,0.791-0.724c0.133-0.114,0.324-0.171,0.571-0.171c0.267,0,0.482,0.073,0.647,0.219 s0.248,0.352,0.248,0.619c0,0.235-0.092,0.509-0.276,0.824c-0.184,0.314-0.461,0.616-0.833,0.904 c-0.371,0.289-0.838,0.528-1.399,0.719c-0.562,0.19-1.208,0.286-1.938,0.286c-1.67,0-2.968-0.477-3.895-1.429 s-1.39-2.244-1.39-3.875c0-0.768,0.114-1.48,0.343-2.138c0.229-0.657,0.562-1.22,1-1.69c0.438-0.47,0.978-0.83,1.619-1.081 c0.641-0.251,1.352-0.376,2.133-0.376c1.015,0,1.887,0.214,2.613,0.643c0.727,0.428,1.271,0.982,1.633,1.661 c0.362,0.68,0.543,1.371,0.543,2.076c0,0.654-0.188,1.077-0.562,1.271C85.07,51.927,84.543,52.024,83.864,52.024z M78.78,50.548 h4.713c-0.063-0.889-0.303-1.554-0.719-1.995c-0.416-0.441-0.963-0.662-1.643-0.662c-0.647,0-1.179,0.224-1.595,0.671 C79.121,49.01,78.868,49.672,78.78,50.548z"/>
  <path fill="#F69D9A" d="M89.281,49.386c0-0.774,0.275-1.438,0.824-1.99c0.549-0.552,1.211-0.828,1.985-0.828 c0.781,0,1.447,0.274,2,0.824c0.552,0.549,0.828,1.214,0.828,1.995s-0.276,1.446-0.828,1.995c-0.552,0.549-1.216,0.824-1.99,0.824 c-0.78,0-1.445-0.274-1.995-0.824C89.556,50.832,89.281,50.167,89.281,49.386z"/>
  <path fill="#9561A8" d="M104.819,56.432h-4.266c-0.616,0-1.055-0.138-1.319-0.414c-0.263-0.276-0.395-0.716-0.395-1.319V44.207 c0-0.616,0.135-1.059,0.405-1.328c0.27-0.27,0.706-0.405,1.309-0.405h4.522c0.667,0,1.244,0.042,1.733,0.124 c0.488,0.083,0.926,0.242,1.313,0.477c0.33,0.197,0.622,0.446,0.876,0.747c0.254,0.302,0.448,0.635,0.581,1 c0.133,0.365,0.2,0.75,0.2,1.157c0,1.396-0.699,2.418-2.095,3.066c1.834,0.584,2.751,1.72,2.751,3.409c0,0.781-0.2,1.484-0.6,2.109 c-0.399,0.625-0.939,1.087-1.618,1.386c-0.426,0.178-0.914,0.303-1.467,0.376C106.2,56.396,105.555,56.432,104.819,56.432z M101.667,44.597v3.608h2.59c0.704,0,1.249-0.066,1.633-0.2c0.384-0.133,0.677-0.387,0.881-0.762 c0.158-0.267,0.238-0.564,0.238-0.895c0-0.705-0.251-1.173-0.752-1.405c-0.501-0.231-1.266-0.347-2.294-0.347H101.667z M104.609,50.234h-2.942v4.075h3.037c1.911,0,2.866-0.689,2.866-2.066c0-0.705-0.248-1.215-0.743-1.533 C106.333,50.393,105.593,50.234,104.609,50.234z"/>
  <path fill="#9561A8" d="M119.272,55.204c-0.628,0.489-1.236,0.855-1.823,1.1c-0.587,0.244-1.246,0.367-1.976,0.367 c-0.667,0-1.252-0.132-1.757-0.396c-0.504-0.263-0.894-0.62-1.166-1.071c-0.273-0.45-0.41-0.939-0.41-1.466 c0-0.711,0.225-1.317,0.676-1.819c0.45-0.501,1.069-0.838,1.856-1.009c0.165-0.038,0.574-0.124,1.229-0.257 c0.653-0.134,1.214-0.256,1.68-0.367c0.467-0.111,0.973-0.246,1.519-0.405c-0.032-0.686-0.17-1.188-0.415-1.509 c-0.244-0.32-0.75-0.481-1.519-0.481c-0.66,0-1.157,0.092-1.49,0.276c-0.333,0.184-0.619,0.46-0.857,0.828 c-0.238,0.369-0.406,0.611-0.504,0.729c-0.099,0.118-0.31,0.176-0.633,0.176c-0.292,0-0.544-0.094-0.757-0.281 c-0.213-0.188-0.319-0.427-0.319-0.719c0-0.457,0.162-0.901,0.486-1.333s0.829-0.787,1.514-1.066s1.539-0.419,2.561-0.419 c1.143,0,2.041,0.135,2.695,0.404c0.653,0.27,1.115,0.697,1.385,1.281c0.27,0.584,0.405,1.358,0.405,2.323 c0,0.609-0.002,1.127-0.005,1.552c-0.003,0.425-0.008,0.898-0.015,1.418c0,0.489,0.081,0.998,0.243,1.528 c0.162,0.53,0.243,0.871,0.243,1.023c0,0.267-0.125,0.509-0.376,0.729c-0.251,0.219-0.535,0.329-0.852,0.329 c-0.267,0-0.53-0.125-0.791-0.376C119.84,56.043,119.564,55.68,119.272,55.204z M119.101,51.443 c-0.381,0.14-0.935,0.287-1.662,0.443c-0.727,0.155-1.23,0.27-1.509,0.343c-0.279,0.073-0.546,0.216-0.8,0.428 c-0.254,0.213-0.381,0.51-0.381,0.891c0,0.394,0.149,0.728,0.447,1.004c0.298,0.276,0.689,0.414,1.171,0.414 c0.514,0,0.989-0.113,1.423-0.338c0.435-0.226,0.754-0.516,0.957-0.872c0.235-0.393,0.353-1.041,0.353-1.942V51.443z"/>
  <path fill="#9561A8" d="M132.66,53.271c0,0.717-0.175,1.332-0.523,1.842c-0.35,0.511-0.865,0.898-1.547,1.162 c-0.683,0.264-1.513,0.396-2.49,0.396c-0.934,0-1.733-0.143-2.399-0.429c-0.667-0.286-1.159-0.643-1.476-1.071 c-0.317-0.428-0.476-0.858-0.476-1.29c0-0.286,0.102-0.53,0.305-0.733c0.203-0.203,0.46-0.305,0.771-0.305 c0.272,0,0.482,0.067,0.628,0.2s0.286,0.321,0.419,0.562c0.267,0.464,0.586,0.81,0.957,1.038c0.372,0.229,0.877,0.343,1.519,0.343 c0.521,0,0.948-0.116,1.281-0.348c0.333-0.231,0.5-0.497,0.5-0.795c0-0.457-0.173-0.79-0.519-1c-0.346-0.209-0.916-0.409-1.709-0.6 c-0.895-0.222-1.624-0.456-2.185-0.7c-0.562-0.245-1.011-0.567-1.347-0.966c-0.337-0.4-0.505-0.892-0.505-1.476 c0-0.521,0.155-1.012,0.467-1.476c0.311-0.463,0.77-0.833,1.375-1.109c0.606-0.276,1.338-0.415,2.195-0.415 c0.673,0,1.277,0.07,1.814,0.21c0.536,0.14,0.984,0.327,1.342,0.562c0.359,0.235,0.632,0.495,0.819,0.781 c0.188,0.286,0.281,0.565,0.281,0.838c0,0.298-0.1,0.542-0.3,0.733c-0.2,0.19-0.484,0.286-0.852,0.286 c-0.267,0-0.494-0.076-0.681-0.229c-0.188-0.152-0.402-0.381-0.643-0.686c-0.197-0.254-0.428-0.457-0.695-0.609 s-0.628-0.229-1.085-0.229c-0.47,0-0.86,0.1-1.171,0.3c-0.312,0.2-0.467,0.449-0.467,0.747c0,0.273,0.114,0.497,0.343,0.671 c0.229,0.175,0.536,0.319,0.924,0.433c0.387,0.114,0.92,0.254,1.6,0.419c0.806,0.197,1.464,0.432,1.976,0.705 c0.511,0.273,0.898,0.595,1.162,0.966C132.528,52.371,132.66,52.795,132.66,53.271z"/>
  <path fill="#9561A8" d="M136.173,44.892c-0.362,0-0.671-0.111-0.929-0.333c-0.257-0.222-0.386-0.537-0.386-0.943 c0-0.368,0.132-0.671,0.396-0.909c0.263-0.238,0.569-0.357,0.919-0.357c0.336,0,0.634,0.108,0.895,0.323 c0.26,0.216,0.391,0.53,0.391,0.943c0,0.4-0.127,0.712-0.381,0.938C136.824,44.779,136.522,44.892,136.173,44.892z M137.458,47.577 v7.512c0,0.521-0.124,0.914-0.371,1.181c-0.248,0.267-0.562,0.4-0.943,0.4s-0.69-0.137-0.928-0.41 c-0.238-0.273-0.357-0.663-0.357-1.171v-7.436c0-0.514,0.119-0.901,0.357-1.162c0.238-0.26,0.547-0.391,0.928-0.391 s0.695,0.13,0.943,0.391C137.334,46.752,137.458,47.114,137.458,47.577z"/>
  <path fill="#9561A8" d="M149.465,53.452c0,0.324-0.097,0.67-0.291,1.038c-0.193,0.368-0.489,0.719-0.885,1.052 c-0.397,0.333-0.897,0.602-1.5,0.804c-0.603,0.203-1.282,0.305-2.037,0.305c-1.606,0-2.86-0.468-3.761-1.404 c-0.901-0.936-1.352-2.191-1.352-3.766c0-1.066,0.206-2.009,0.619-2.828c0.412-0.818,1.009-1.452,1.79-1.899 c0.78-0.447,1.714-0.671,2.799-0.671c0.673,0,1.291,0.098,1.852,0.295c0.562,0.197,1.038,0.451,1.428,0.762 c0.391,0.311,0.689,0.643,0.895,0.995c0.207,0.352,0.31,0.681,0.31,0.985c0,0.311-0.116,0.575-0.348,0.79 c-0.231,0.216-0.513,0.324-0.842,0.324c-0.216,0-0.396-0.056-0.538-0.167c-0.143-0.111-0.303-0.29-0.481-0.538 c-0.317-0.482-0.649-0.844-0.995-1.085c-0.346-0.241-0.786-0.362-1.319-0.362c-0.768,0-1.387,0.3-1.856,0.9 c-0.47,0.6-0.705,1.42-0.705,2.461c0,0.489,0.06,0.938,0.181,1.347c0.12,0.41,0.295,0.759,0.523,1.047 c0.229,0.289,0.505,0.508,0.828,0.657c0.324,0.149,0.679,0.224,1.066,0.224c0.521,0,0.967-0.121,1.338-0.362 c0.372-0.241,0.7-0.609,0.985-1.104c0.159-0.292,0.33-0.521,0.515-0.686c0.184-0.165,0.409-0.248,0.676-0.248 c0.317,0,0.581,0.121,0.79,0.362C149.361,52.922,149.465,53.179,149.465,53.452z"/>
  <path fill="#F69D9A" d="M152.816,49.386c0-0.774,0.275-1.438,0.824-1.99c0.549-0.552,1.211-0.828,1.985-0.828 c0.781,0,1.447,0.274,2,0.824c0.552,0.549,0.828,1.214,0.828,1.995s-0.276,1.446-0.828,1.995c-0.552,0.549-1.216,0.824-1.99,0.824 c-0.78,0-1.445-0.274-1.995-0.824C153.091,50.832,152.816,50.167,152.816,49.386z"/>
  <path fill="#9561A8" d="M171.591,44.654h-6.37v3.428h5.865c0.432,0,0.754,0.097,0.967,0.291c0.212,0.194,0.319,0.449,0.319,0.767 s-0.105,0.576-0.314,0.776c-0.21,0.2-0.533,0.3-0.972,0.3h-5.865v3.971h6.589c0.444,0,0.779,0.103,1.005,0.31 c0.225,0.206,0.338,0.48,0.338,0.823c0,0.331-0.113,0.599-0.338,0.805c-0.226,0.207-0.561,0.31-1.005,0.31h-7.684 c-0.616,0-1.059-0.136-1.328-0.409c-0.27-0.273-0.405-0.714-0.405-1.324V44.207c0-0.406,0.06-0.738,0.181-0.995 c0.12-0.257,0.309-0.444,0.566-0.562c0.257-0.118,0.585-0.176,0.985-0.176h7.465c0.451,0,0.786,0.1,1.004,0.3 c0.219,0.2,0.329,0.462,0.329,0.786c0,0.33-0.109,0.595-0.329,0.795C172.377,44.554,172.042,44.654,171.591,44.654z"/>
  <path fill="#9561A8" d="M175.009,46.33h0.619v-0.78c0-0.813,0.103-1.458,0.31-1.938c0.206-0.479,0.555-0.828,1.047-1.047 c0.492-0.219,1.167-0.328,2.023-0.328c1.517,0,2.276,0.371,2.276,1.114c0,0.241-0.079,0.448-0.237,0.619 c-0.16,0.172-0.347,0.257-0.563,0.257c-0.102,0-0.276-0.019-0.524-0.057c-0.247-0.038-0.457-0.057-0.628-0.057 c-0.47,0-0.771,0.138-0.905,0.414c-0.133,0.276-0.2,0.671-0.2,1.186v0.619h0.638c0.99,0,1.485,0.299,1.485,0.896 c0,0.425-0.132,0.695-0.395,0.809c-0.264,0.114-0.627,0.171-1.09,0.171h-0.638v6.884c0,0.515-0.123,0.906-0.367,1.176 c-0.245,0.27-0.561,0.405-0.948,0.405c-0.368,0-0.674-0.135-0.918-0.405c-0.245-0.27-0.367-0.662-0.367-1.176v-6.884h-0.714 c-0.388,0-0.686-0.087-0.896-0.262c-0.209-0.175-0.314-0.401-0.314-0.681C173.705,46.641,174.14,46.33,175.009,46.33z"/>
  <path fill="#9561A8" d="M182.227,46.33h0.619v-0.78c0-0.813,0.104-1.458,0.31-1.938c0.206-0.479,0.556-0.828,1.048-1.047 c0.491-0.219,1.166-0.328,2.023-0.328c1.516,0,2.275,0.371,2.275,1.114c0,0.241-0.08,0.448-0.238,0.619 c-0.159,0.172-0.346,0.257-0.563,0.257c-0.102,0-0.275-0.019-0.523-0.057s-0.457-0.057-0.629-0.057 c-0.469,0-0.771,0.138-0.904,0.414c-0.133,0.276-0.199,0.671-0.199,1.186v0.619h0.638c0.99,0,1.485,0.299,1.485,0.896 c0,0.425-0.132,0.695-0.395,0.809c-0.264,0.114-0.627,0.171-1.091,0.171h-0.638v6.884c0,0.515-0.123,0.906-0.367,1.176 c-0.244,0.27-0.561,0.405-0.947,0.405c-0.368,0-0.674-0.135-0.918-0.405c-0.245-0.27-0.367-0.662-0.367-1.176v-6.884h-0.715 c-0.387,0-0.686-0.087-0.895-0.262c-0.209-0.175-0.314-0.401-0.314-0.681C180.922,46.641,181.357,46.33,182.227,46.33z"/>
  <path fill="#9561A8" d="M195.928,52.024h-5.084c0.006,0.59,0.125,1.111,0.357,1.562c0.231,0.451,0.539,0.79,0.924,1.019 c0.384,0.229,0.807,0.343,1.271,0.343c0.311,0,0.594-0.037,0.852-0.109c0.257-0.073,0.506-0.188,0.748-0.343 c0.24-0.156,0.463-0.322,0.666-0.5s0.467-0.419,0.79-0.724c0.134-0.114,0.323-0.171,0.571-0.171c0.267,0,0.482,0.073,0.647,0.219 s0.247,0.352,0.247,0.619c0,0.235-0.092,0.509-0.275,0.824c-0.185,0.314-0.462,0.616-0.834,0.904 c-0.371,0.289-0.838,0.528-1.398,0.719c-0.563,0.19-1.209,0.286-1.938,0.286c-1.67,0-2.969-0.477-3.895-1.429 c-0.928-0.952-1.391-2.244-1.391-3.875c0-0.768,0.114-1.48,0.343-2.138c0.229-0.657,0.562-1.22,0.999-1.69 c0.439-0.47,0.979-0.83,1.619-1.081c0.641-0.251,1.352-0.376,2.133-0.376c1.016,0,1.887,0.214,2.613,0.643 c0.728,0.428,1.271,0.982,1.633,1.661c0.363,0.68,0.543,1.371,0.543,2.076c0,0.654-0.188,1.077-0.561,1.271 C197.135,51.927,196.607,52.024,195.928,52.024z M190.844,50.548h4.713c-0.063-0.889-0.303-1.554-0.719-1.995 c-0.416-0.441-0.963-0.662-1.643-0.662c-0.646,0-1.179,0.224-1.594,0.671C191.186,49.01,190.933,49.672,190.844,50.548z"/>
  <path fill="#9561A8" d="M209.582,53.452c0,0.324-0.096,0.67-0.29,1.038c-0.193,0.368-0.489,0.719-0.886,1.052 c-0.396,0.333-0.896,0.602-1.5,0.804c-0.603,0.203-1.281,0.305-2.037,0.305c-1.605,0-2.859-0.468-3.761-1.404 c-0.901-0.936-1.353-2.191-1.353-3.766c0-1.066,0.207-2.009,0.619-2.828c0.412-0.818,1.01-1.452,1.791-1.899 c0.779-0.447,1.713-0.671,2.799-0.671c0.672,0,1.29,0.098,1.852,0.295c0.563,0.197,1.038,0.451,1.428,0.762 c0.391,0.311,0.689,0.643,0.896,0.995c0.206,0.352,0.31,0.681,0.31,0.985c0,0.311-0.115,0.575-0.348,0.79 c-0.231,0.216-0.513,0.324-0.842,0.324c-0.217,0-0.396-0.056-0.539-0.167c-0.143-0.111-0.303-0.29-0.48-0.538 c-0.317-0.482-0.648-0.844-0.995-1.085c-0.346-0.241-0.786-0.362-1.319-0.362c-0.768,0-1.387,0.3-1.855,0.9 c-0.471,0.6-0.705,1.42-0.705,2.461c0,0.489,0.061,0.938,0.182,1.347c0.119,0.41,0.295,0.759,0.523,1.047 c0.229,0.289,0.504,0.508,0.828,0.657c0.324,0.149,0.679,0.224,1.066,0.224c0.52,0,0.967-0.121,1.338-0.362s0.699-0.609,0.984-1.104 c0.159-0.292,0.33-0.521,0.516-0.686c0.184-0.165,0.408-0.248,0.676-0.248c0.316,0,0.58,0.121,0.789,0.362 C209.479,52.922,209.582,53.179,209.582,53.452z"/>
  <path fill="#9561A8" d="M211.992,46.33h0.285v-1.562c0-0.419,0.012-0.747,0.033-0.985c0.022-0.238,0.084-0.442,0.186-0.614 c0.102-0.177,0.248-0.322,0.438-0.433c0.191-0.111,0.404-0.167,0.639-0.167c0.33,0,0.629,0.124,0.895,0.371 c0.178,0.166,0.291,0.367,0.338,0.605c0.049,0.238,0.072,0.576,0.072,1.014v1.771h0.951c0.369,0,0.65,0.087,0.844,0.262 c0.193,0.174,0.29,0.398,0.29,0.671c0,0.349-0.138,0.593-0.414,0.733s-0.671,0.209-1.186,0.209h-0.485v4.78 c0,0.406,0.014,0.719,0.043,0.938c0.028,0.219,0.104,0.396,0.229,0.533c0.123,0.136,0.324,0.205,0.604,0.205 c0.152,0,0.359-0.027,0.619-0.081c0.261-0.054,0.464-0.081,0.609-0.081c0.21,0,0.398,0.084,0.566,0.252 c0.169,0.168,0.253,0.376,0.253,0.624c0,0.419-0.229,0.739-0.686,0.961S216,56.67,215.143,56.67c-0.813,0-1.428-0.137-1.846-0.41 c-0.42-0.273-0.694-0.65-0.824-1.133c-0.131-0.482-0.195-1.126-0.195-1.933v-4.989h-0.343c-0.374,0-0.66-0.089-0.856-0.267 c-0.197-0.178-0.295-0.403-0.295-0.676s0.103-0.497,0.309-0.671C211.299,46.417,211.598,46.33,211.992,46.33z"/>
  <path fill="#9561A8" d="M220.066,44.892c-0.361,0-0.672-0.111-0.929-0.333s-0.386-0.537-0.386-0.943 c0-0.368,0.132-0.671,0.396-0.909c0.263-0.238,0.569-0.357,0.919-0.357c0.336,0,0.635,0.108,0.895,0.323 c0.26,0.216,0.391,0.53,0.391,0.943c0,0.4-0.127,0.712-0.381,0.938C220.717,44.779,220.415,44.892,220.066,44.892z M221.352,47.577 v7.512c0,0.521-0.123,0.914-0.371,1.181s-0.563,0.4-0.943,0.4s-0.689-0.137-0.928-0.41s-0.357-0.663-0.357-1.171v-7.436 c0-0.514,0.119-0.901,0.357-1.162s0.547-0.391,0.928-0.391s0.695,0.13,0.943,0.391S221.352,47.114,221.352,47.577z"/>
  <path fill="#9561A8" d="M225.874,47.72l2.104,5.903l2.266-6.161c0.178-0.495,0.353-0.846,0.523-1.052 c0.172-0.206,0.432-0.31,0.781-0.31c0.33,0,0.611,0.111,0.843,0.333s0.347,0.479,0.347,0.771c0,0.114-0.02,0.248-0.061,0.4 c-0.042,0.152-0.09,0.295-0.144,0.428s-0.116,0.286-0.186,0.457l-2.495,6.189c-0.069,0.178-0.16,0.403-0.271,0.676 c-0.11,0.273-0.234,0.506-0.371,0.7c-0.137,0.193-0.305,0.344-0.504,0.452c-0.2,0.108-0.443,0.162-0.729,0.162 c-0.369,0-0.662-0.084-0.881-0.252c-0.219-0.168-0.381-0.353-0.486-0.552c-0.104-0.2-0.28-0.595-0.527-1.186l-2.477-6.122 c-0.057-0.152-0.115-0.305-0.176-0.457s-0.111-0.308-0.152-0.467s-0.063-0.295-0.063-0.409c0-0.178,0.055-0.354,0.162-0.529 c0.108-0.174,0.258-0.317,0.447-0.428c0.191-0.111,0.397-0.167,0.619-0.167c0.432,0,0.729,0.124,0.891,0.372 S225.678,47.136,225.874,47.72z"/>
  <path fill="#9561A8" d="M241.604,52.024h-5.084c0.006,0.59,0.125,1.111,0.356,1.562s0.54,0.79,0.923,1.019 c0.385,0.229,0.809,0.343,1.271,0.343c0.311,0,0.596-0.037,0.853-0.109c0.257-0.073,0.506-0.188,0.747-0.343 c0.241-0.156,0.463-0.322,0.666-0.5s0.467-0.419,0.791-0.724c0.133-0.114,0.324-0.171,0.571-0.171c0.267,0,0.482,0.073,0.647,0.219 s0.248,0.352,0.248,0.619c0,0.235-0.093,0.509-0.277,0.824c-0.184,0.314-0.461,0.616-0.832,0.904 c-0.371,0.289-0.838,0.528-1.4,0.719c-0.562,0.19-1.207,0.286-1.938,0.286c-1.67,0-2.967-0.477-3.895-1.429 c-0.926-0.952-1.39-2.244-1.39-3.875c0-0.768,0.114-1.48,0.343-2.138c0.229-0.657,0.563-1.22,1-1.69s0.977-0.83,1.619-1.081 c0.641-0.251,1.352-0.376,2.133-0.376c1.015,0,1.887,0.214,2.613,0.643c0.727,0.428,1.271,0.982,1.633,1.661 c0.361,0.68,0.543,1.371,0.543,2.076c0,0.654-0.188,1.077-0.563,1.271C242.809,51.927,242.282,52.024,241.604,52.024z M236.52,50.548h4.713c-0.064-0.889-0.304-1.554-0.719-1.995c-0.416-0.441-0.964-0.662-1.643-0.662c-0.648,0-1.18,0.224-1.596,0.671 C236.859,49.01,236.607,49.672,236.52,50.548z"/>
  <g>
    <path fill="#009444" stroke="#369E47" stroke-miterlimit="10" d="M 277.528 40.779 C 296.348 52.602 302.45 72.494 302.45 72.494 C 309.161 87.597 300.767 112.303 300.767 112.303 C 316.719 129.96 311.257 133.488 311.257 133.488 C 307.591 140.324 303.683 135.102 303.683 135.102 C 302.935 121.756 294.956 116.006 294.956 116.006 C 281.959 116.213 267.893 105.937 267.893 105.937 C 253.254 96.25 252.753 69.861 252.753 69.861 C 247.997 35.528 233.309 23.423 233.309 23.423 C 253.889 26.022 277.526 40.779 277.528 40.779 Z M 241.167 27.808 C 240.942 28.135 241.025 28.582 241.351 28.808 L 241.394 28.837 C 242.935 29.898 244.411 31.273 245.769 32.669 C 247.134 34.083 248.413 35.583 249.614 37.144 C 252.015 40.268 254.125 43.616 255.992 47.091 C 259.727 54.047 262.517 61.487 264.661 69.089 C 265.195 70.991 265.692 72.904 266.146 74.827 C 266.688 76.952 267.363 78.851 268.125 80.795 C 269.655 84.642 271.553 88.347 273.838 91.841 C 278.375 98.808 284.677 104.973 292.493 108.685 L 292.526 108.701 C 292.562 108.718 292.599 108.734 292.636 108.75 C 294.102 109.366 295.791 108.676 296.407 107.209 C 297.023 105.742 296.334 104.053 294.867 103.437 C 288.023 100.563 282.16 95.414 277.696 89.193 C 275.455 86.083 273.526 82.71 271.938 79.185 C 271.156 77.439 270.414 75.584 269.889 73.85 C 269.335 71.9 268.738 69.962 268.102 68.036 C 265.553 60.34 262.346 52.829 258.182 45.848 C 256.102 42.36 253.776 39.012 251.153 35.901 C 249.841 34.347 248.45 32.856 246.971 31.453 C 245.471 30.055 243.952 28.739 242.139 27.607 C 241.814 27.406 241.385 27.492 241.167 27.808 Z"/>
  </g>
  <path fill="none" stroke="#FFFFFF" stroke-linecap="round" stroke-linejoin="round" stroke-miterlimit="10" d="M128.379,178.487"/>
  <path fill="#9561A8" d="M 164.964 231.238 C 164.964 229.848 165.456 228.658 166.443 227.666 C 167.427 226.676 168.616 226.18 170.006 226.18 C 171.408 226.18 172.604 226.673 173.596 227.659 C 174.586 228.644 175.082 229.838 175.082 231.239 C 175.082 232.64 174.586 233.834 173.596 234.819 C 172.604 235.805 171.413 236.298 170.024 236.298 C 168.623 236.298 167.428 235.806 166.444 234.819 C 165.456 233.833 164.964 232.64 164.964 231.238 Z"/>
</svg>