<?xml version="1.0" encoding="utf-8"?>
<svg version="1.1" id="Layer_1" x="0px" y="0px" width="315px" height="231.2px" viewBox="0 0 315 231.2" xmlns="http://www.w3.org/2000/svg" xmlns:bx="https://boxy-svg.com">
  <line fill="#009444" stroke="#009444" stroke-width="5" stroke-miterlimit="10" x1="0.298" y1="184.586" x2="315" y2="184.586" bx:origin="NaN NaN"/>
  <line fill="#39B54A" stroke="#009444" stroke-width="5" stroke-miterlimit="10" x1="0.382" y1="231.162" x2="315" y2="231.162" bx:origin="NaN NaN"/>
  <path fill="#F69D9A" d="M 14.241 170.882 L 14.241 142.648 C 19.069 144.501 23.298 145.429 26.92 145.429 C 38.488 145.429 45.985 139.491 49.417 127.62 C 43.189 130.976 37.087 132.656 31.115 132.656 C 22.278 132.656 15.004 129.661 9.284 123.666 C 3.565 117.671 0.704 110.042 0.704 100.775 L 0.704 46.305 L 36.359 46.305 L 36.359 92.868 C 36.359 98.024 38.708 100.601 43.413 100.601 C 47.923 100.601 50.181 97.762 50.181 92.086 L 50.181 46.305 L 85.835 46.305 L 85.835 123.623 C 85.835 138.045 81.386 149.682 72.488 158.543 C 61.872 169.086 49.035 174.356 33.975 174.356 C 27.362 174.356 20.786 173.198 14.241 170.882 Z" bx:origin="NaN NaN"/>
  <path fill="#F69D9A" d="M 116.619 42.817 C 123.597 42.817 129.581 45.328 134.566 50.351 C 139.556 55.37 142.049 61.385 142.049 68.396 C 142.049 75.509 139.522 81.566 134.47 86.571 C 129.417 91.574 123.317 94.077 116.174 94.077 C 109.032 94.077 102.923 91.565 97.854 86.547 C 92.783 81.527 90.251 75.476 90.251 68.397 C 90.251 61.191 92.784 55.125 97.854 50.202 C 102.922 45.28 109.178 42.817 116.619 42.817 Z M 116.125 61.04 C 114.147 61.04 112.47 61.757 111.088 63.188 C 109.705 64.619 109.013 66.373 109.013 68.448 C 109.013 70.489 109.711 72.231 111.113 73.681 C 112.513 75.13 114.182 75.853 116.126 75.853 C 118.1 75.853 119.788 75.13 121.188 73.681 C 122.585 72.231 123.284 70.489 123.284 68.448 C 123.284 66.373 122.594 64.618 121.212 63.188 C 119.827 61.757 118.133 61.04 116.125 61.04 Z" bx:origin="NaN NaN"/>
  <path fill="#F69D9A" d="M 145.704 46.305 L 164.171 46.305 L 164.171 74.105 C 164.171 76.903 165.34 78.304 167.678 78.304 C 169.982 78.304 171.134 76.904 171.134 74.105 L 171.134 46.305 L 189.604 46.305 L 189.604 73.761 C 189.604 80.148 187.481 85.539 183.233 89.933 C 178.985 94.327 173.783 96.524 167.63 96.524 C 160.617 96.524 154.972 93.973 150.691 88.871 C 147.365 84.889 145.705 79.357 145.705 72.278 L 145.705 46.305 Z" bx:origin="NaN NaN"/>
  <path fill="#F69D9A" d="M 220.635 45.121 L 220.635 64.873 C 219.354 64.149 218.185 63.786 217.132 63.786 C 213.773 63.786 212.094 66.352 212.094 71.489 L 212.094 94.847 L 193.625 94.847 L 193.625 67.933 C 193.625 60.824 195.567 55.155 199.452 50.923 C 203.338 46.694 208.52 44.579 215.006 44.579 C 216.455 44.578 218.332 44.759 220.635 45.121 Z" bx:origin="NaN NaN"/>
  <path fill="#F69D9A" d="M 23.706 212.92 C 23.706 214.435 23.246 215.796 22.325 217.002 C 21.405 218.209 20.057 219.155 18.284 219.839 C 16.51 220.522 14.407 220.863 11.975 220.863 C 9.06 220.863 6.654 220.395 4.759 219.462 C 3.415 218.79 2.323 217.895 1.483 216.772 C 0.644 215.651 0.224 214.56 0.224 213.502 C 0.224 212.887 0.476 212.36 0.98 211.921 C 1.483 211.484 2.125 211.264 2.905 211.264 C 3.535 211.264 4.07 211.436 4.507 211.777 C 4.944 212.119 5.316 212.626 5.625 213.298 C 6.001 214.095 6.408 214.761 6.845 215.296 C 7.282 215.832 7.896 216.273 8.689 216.62 C 9.481 216.968 10.523 217.141 11.812 217.141 C 13.586 217.141 15.028 216.791 16.136 216.09 C 17.245 215.391 17.799 214.517 17.799 213.469 C 17.799 212.638 17.501 211.962 16.903 211.445 C 16.305 210.927 15.533 210.531 14.585 210.257 C 13.637 209.983 12.371 209.693 10.786 209.387 C 8.662 208.965 6.886 208.472 5.454 207.908 C 4.023 207.345 2.888 206.576 2.048 205.601 C 1.208 204.628 0.789 203.417 0.789 201.971 C 0.789 200.594 1.232 199.369 2.119 198.299 C 3.006 197.229 4.289 196.406 5.969 195.83 C 7.649 195.255 9.624 194.969 11.895 194.969 C 13.709 194.969 15.279 195.158 16.602 195.54 C 17.925 195.922 19.024 196.429 19.897 197.061 C 20.771 197.693 21.409 198.357 21.813 199.051 C 22.215 199.745 22.417 200.423 22.417 201.083 C 22.417 201.686 22.165 202.23 21.662 202.715 C 21.158 203.199 20.529 203.441 19.778 203.441 C 19.092 203.441 18.571 203.296 18.215 203.005 C 17.859 202.715 17.473 202.239 17.056 201.578 C 16.518 200.634 15.873 199.895 15.121 199.366 C 14.368 198.837 13.159 198.572 11.492 198.572 C 9.947 198.572 8.701 198.86 7.753 199.434 C 6.806 200.009 6.333 200.702 6.333 201.509 C 6.333 202.011 6.494 202.444 6.817 202.808 C 7.14 203.173 7.582 203.485 8.147 203.746 C 8.711 204.009 9.283 204.214 9.86 204.361 C 10.438 204.509 11.393 204.726 12.723 205.011 C 14.389 205.341 15.897 205.704 17.248 206.104 C 18.598 206.502 19.747 206.987 20.694 207.556 C 21.642 208.125 22.38 208.845 22.911 209.716 C 23.44 210.588 23.706 211.657 23.706 212.92 Z" bx:origin="NaN NaN"/>
  <path fill="#F69D9A" d="M 48.854 198.043 L 48.854 206.822 L 60.605 196.436 C 61.169 195.935 61.649 195.565 62.046 195.326 C 62.442 195.087 62.97 194.969 63.629 194.969 C 64.488 194.969 65.184 195.181 65.715 195.609 C 66.245 196.036 66.51 196.557 66.51 197.171 C 66.51 197.912 66.06 198.647 65.16 199.374 L 57.883 205.218 L 66.268 215.399 C 66.859 216.104 67.303 216.722 67.599 217.252 C 67.893 217.782 68.041 218.297 68.041 218.798 C 68.041 219.357 67.783 219.841 67.266 220.25 C 66.749 220.66 66.046 220.865 65.16 220.865 C 64.327 220.865 63.648 220.714 63.124 220.412 C 62.599 220.11 62.156 219.71 61.793 219.208 C 61.431 218.707 61.108 218.251 60.826 217.842 L 53.751 208.617 L 48.854 212.597 L 48.854 217.773 C 48.854 218.821 48.572 219.598 48.007 220.104 C 47.443 220.611 46.717 220.865 45.83 220.865 C 45.319 220.865 44.829 220.751 44.359 220.523 C 43.888 220.294 43.525 219.988 43.27 219.6 C 43.082 219.282 42.967 218.912 42.927 218.49 C 42.886 218.069 42.866 217.46 42.866 216.662 L 42.866 198.044 C 42.866 197.02 43.131 196.25 43.662 195.737 C 44.193 195.224 44.914 194.969 45.829 194.969 C 46.729 194.969 47.458 195.221 48.016 195.728 C 48.575 196.235 48.854 197.006 48.854 198.043 Z" bx:origin="NaN NaN"/>
  <path fill="#F69D9A" d="M 87.201 217.772 L 87.201 198.043 C 87.201 197.019 87.476 196.249 88.028 195.736 C 88.58 195.223 89.291 194.968 90.165 194.968 C 91.064 194.968 91.794 195.22 92.352 195.727 C 92.909 196.235 93.188 197.006 93.188 198.042 L 93.188 217.771 C 93.188 218.807 92.909 219.582 92.352 220.094 C 91.794 220.606 91.064 220.863 90.165 220.863 C 89.304 220.863 88.596 220.603 88.039 220.086 C 87.48 219.569 87.201 218.796 87.201 217.772 Z" bx:origin="NaN NaN"/>
  <path fill="#F69D9A" d="M 120.071 198.007 L 131.581 212.766 L 131.581 197.871 C 131.581 196.904 131.826 196.178 132.317 195.693 C 132.807 195.21 133.468 194.968 134.302 194.968 C 135.161 194.968 135.84 195.209 136.338 195.693 C 136.835 196.177 137.083 196.904 137.083 197.871 L 137.083 217.567 C 137.083 219.765 136.008 220.864 133.858 220.864 C 133.32 220.864 132.837 220.798 132.407 220.667 C 131.976 220.536 131.573 220.328 131.197 220.045 C 130.821 219.76 130.471 219.427 130.149 219.045 C 129.826 218.663 129.503 218.274 129.181 217.875 L 117.954 203.287 L 117.954 217.96 C 117.954 218.916 117.693 219.641 117.168 220.129 C 116.643 220.618 115.971 220.864 115.152 220.864 C 114.305 220.864 113.627 220.616 113.116 220.12 C 112.605 219.626 112.349 218.905 112.349 217.96 L 112.349 198.641 C 112.349 197.821 112.456 197.177 112.672 196.71 C 112.927 196.198 113.351 195.779 113.942 195.454 C 114.533 195.13 115.172 194.969 115.857 194.969 C 116.395 194.969 116.856 195.043 117.238 195.19 C 117.621 195.338 117.956 195.538 118.245 195.789 C 118.534 196.039 118.83 196.364 119.133 196.763 C 119.436 197.16 119.749 197.575 120.071 198.007 Z" bx:origin="NaN NaN"/>
  <path fill="#F69D9A" d="M 182.588 212.528 C 182.588 213.325 182.357 214.187 181.893 215.116 C 181.429 216.044 180.7 216.955 179.706 217.849 C 178.712 218.743 177.441 219.469 175.897 220.027 C 174.35 220.584 172.55 220.864 170.495 220.864 C 168.935 220.864 167.518 220.738 166.241 220.487 C 164.965 220.237 163.805 219.847 162.764 219.318 C 161.722 218.788 160.765 218.09 159.892 217.225 C 159.113 216.439 158.448 215.56 157.896 214.585 C 157.345 213.612 156.932 212.572 156.657 211.468 C 156.382 210.364 156.244 209.191 156.244 207.949 C 156.244 205.932 156.59 204.129 157.283 202.534 C 157.973 200.94 158.966 199.576 160.255 198.443 C 161.545 197.309 163.058 196.447 164.791 195.855 C 166.524 195.262 168.371 194.967 170.333 194.967 C 172.725 194.967 174.854 195.37 176.723 196.179 C 178.591 196.989 180.023 197.987 181.016 199.177 C 182.012 200.367 182.508 201.49 182.508 202.551 C 182.508 203.131 182.267 203.644 181.783 204.087 C 181.299 204.532 180.714 204.754 180.029 204.754 C 179.262 204.754 178.688 204.601 178.305 204.292 C 177.922 203.985 177.495 203.455 177.025 202.704 C 176.247 201.463 175.329 200.534 174.273 199.919 C 173.218 199.304 171.919 198.998 170.374 198.998 C 167.915 198.998 165.956 199.789 164.498 201.371 C 163.04 202.955 162.311 205.204 162.311 208.118 C 162.311 210.066 162.633 211.686 163.278 212.978 C 163.923 214.271 164.838 215.236 166.019 215.874 C 167.202 216.511 168.585 216.83 170.171 216.83 C 171.892 216.83 173.347 216.468 174.535 215.745 C 175.724 215.022 176.621 213.96 177.225 212.558 C 177.481 211.898 177.797 211.361 178.173 210.945 C 178.548 210.529 179.153 210.321 179.987 210.321 C 180.698 210.321 181.31 210.532 181.82 210.954 C 182.333 211.377 182.588 211.901 182.588 212.528 Z" bx:origin="NaN NaN"/>
  <path fill="#F69D9A" d="M 222.772 217.601 L 221.362 214.457 L 209.349 214.457 L 207.937 217.669 C 207.387 218.922 206.917 219.768 206.527 220.205 C 206.137 220.643 205.499 220.863 204.612 220.863 C 203.859 220.863 203.194 220.629 202.616 220.162 C 202.038 219.696 201.749 219.166 201.749 218.573 C 201.749 218.231 201.817 217.88 201.952 217.515 C 202.085 217.15 202.307 216.643 202.616 215.994 L 210.175 199.732 C 210.39 199.265 210.65 198.705 210.952 198.049 C 211.254 197.395 211.577 196.852 211.918 196.418 C 212.262 195.985 212.712 195.635 213.27 195.367 C 213.829 195.099 214.516 194.967 215.336 194.967 C 216.168 194.967 216.863 195.1 217.422 195.367 C 217.98 195.635 218.429 195.979 218.773 196.401 C 219.115 196.822 219.404 197.274 219.64 197.758 C 219.874 198.242 220.173 198.889 220.535 199.696 L 228.257 215.856 C 228.86 217.085 229.162 217.98 229.162 218.538 C 229.162 219.118 228.877 219.651 228.307 220.135 C 227.736 220.618 227.046 220.862 226.241 220.862 C 225.77 220.862 225.368 220.79 225.032 220.648 C 224.695 220.505 224.413 220.312 224.185 220.068 C 223.956 219.823 223.711 219.447 223.449 218.94 C 223.186 218.435 222.961 217.989 222.772 217.601 Z M 210.92 210.648 L 219.749 210.648 L 215.295 200.314 L 210.92 210.648 Z" bx:origin="NaN NaN"/>
  <path fill="#F69D9A" d="M 256.406 209.726 L 254.309 209.726 L 254.309 217.772 C 254.309 218.831 254.034 219.611 253.483 220.112 C 252.932 220.613 252.213 220.864 251.327 220.864 C 250.372 220.864 249.634 220.601 249.109 220.078 C 248.586 219.555 248.323 218.786 248.323 217.772 L 248.323 198.504 C 248.323 197.41 248.612 196.619 249.19 196.13 C 249.767 195.64 250.702 195.395 251.992 195.395 L 261.728 195.395 C 263.071 195.395 264.218 195.444 265.173 195.541 C 266.127 195.638 266.988 195.834 267.754 196.131 C 268.681 196.461 269.501 196.934 270.213 197.548 C 270.924 198.163 271.465 198.878 271.836 199.692 C 272.205 200.507 272.39 201.369 272.39 202.281 C 272.39 204.148 271.768 205.639 270.526 206.756 C 269.283 207.872 267.397 208.664 264.871 209.131 C 265.934 209.61 266.948 210.316 267.915 211.249 C 268.883 212.183 269.746 213.177 270.505 214.229 C 271.265 215.282 271.857 216.233 272.279 217.082 C 272.703 217.932 272.914 218.515 272.914 218.833 C 272.914 219.164 272.789 219.491 272.541 219.815 C 272.293 220.139 271.954 220.395 271.524 220.584 C 271.092 220.772 270.596 220.866 270.033 220.866 C 269.359 220.866 268.795 220.731 268.338 220.464 C 267.882 220.197 267.489 219.859 267.159 219.448 C 266.831 219.038 266.384 218.434 265.82 217.637 L 263.421 214.254 C 262.56 213.014 261.791 212.067 261.113 211.419 C 260.433 210.77 259.744 210.325 259.046 210.086 C 258.349 209.845 257.469 209.726 256.406 209.726 Z M 259.832 199.205 L 254.31 199.205 L 254.31 206.088 L 259.673 206.088 C 261.11 206.088 262.319 205.983 263.3 205.772 C 264.279 205.562 265.029 205.204 265.547 204.697 C 266.064 204.19 266.323 203.492 266.323 202.604 C 266.323 201.91 266.114 201.297 265.699 200.768 C 265.281 200.238 264.703 199.842 263.965 199.58 C 263.267 199.329 261.888 199.205 259.832 199.205 Z" bx:origin="NaN NaN"/>
  <path fill="#F69D9A" d="M 311.625 199.305 L 298.082 199.305 L 298.082 205.455 L 310.551 205.455 C 311.469 205.455 312.154 205.629 312.607 205.975 C 313.058 206.323 313.285 206.782 313.285 207.351 C 313.285 207.92 313.062 208.384 312.617 208.743 C 312.172 209.102 311.483 209.281 310.552 209.281 L 298.083 209.281 L 298.083 216.404 L 312.09 216.404 C 313.035 216.404 313.748 216.59 314.226 216.96 C 314.706 217.33 314.945 217.822 314.945 218.437 C 314.945 219.03 314.707 219.511 314.226 219.881 C 313.748 220.251 313.036 220.436 312.09 220.436 L 295.756 220.436 C 294.446 220.436 293.505 220.191 292.932 219.703 C 292.36 219.213 292.073 218.421 292.073 217.328 L 292.073 198.504 C 292.073 197.775 292.2 197.18 292.458 196.719 C 292.714 196.258 293.116 195.922 293.662 195.711 C 294.209 195.5 294.906 195.395 295.757 195.395 L 311.627 195.395 C 312.585 195.395 313.296 195.575 313.763 195.933 C 314.227 196.292 314.461 196.762 314.461 197.342 C 314.461 197.935 314.227 198.41 313.763 198.769 C 313.293 199.128 312.582 199.305 311.625 199.305 Z" bx:origin="NaN NaN"/>
  <path fill="#9561A8" d="M 145.356 102.202 L 163.822 102.202 L 163.822 130.006 C 163.822 132.804 164.991 134.202 167.329 134.202 C 169.633 134.202 170.786 132.804 170.786 130.006 L 170.786 102.202 L 189.256 102.202 L 189.256 129.658 C 189.256 136.047 187.132 141.436 182.885 145.83 C 178.637 150.227 173.439 152.424 167.281 152.424 C 160.269 152.424 154.624 149.873 150.343 144.769 C 147.017 140.788 145.357 135.257 145.357 128.178 L 145.357 102.202 Z" bx:origin="NaN NaN"/>
  <path fill="#9561A8" d="M 199.648 172.324 L 199.648 156.274 C 202.151 157.328 204.338 157.854 206.215 157.854 C 212.207 157.854 216.091 154.48 217.868 147.73 C 214.642 149.64 211.481 150.596 208.387 150.596 C 203.81 150.596 200.042 148.894 197.08 145.485 C 194.116 142.08 192.637 137.741 192.637 132.474 L 192.637 101.511 L 211.105 101.511 L 211.105 127.979 C 211.105 130.911 212.321 132.373 214.759 132.373 C 217.097 132.373 218.265 130.761 218.265 127.536 L 218.265 101.511 L 236.733 101.511 L 236.733 145.459 C 236.733 153.655 234.429 160.274 229.821 165.312 C 224.323 171.301 217.675 174.297 209.871 174.297 C 206.447 174.299 203.039 173.64 199.648 172.324 Z" bx:origin="NaN NaN"/>
  <path fill="#9561A8" d="M 275.831 103.202 L 275.831 122.66 C 273.231 122.66 271.446 123.144 270.473 124.115 C 269.503 125.085 268.886 127.005 268.623 129.87 C 267.767 139.381 264.08 146.096 257.56 150.014 C 254.106 152.056 249.2 153.078 242.847 153.078 L 240.278 153.078 L 240.278 133.523 L 241.116 133.523 C 244.079 133.523 246.197 132.906 247.463 131.67 C 248.73 130.433 249.462 128.272 249.66 125.177 C 249.923 120.14 250.392 116.603 251.067 114.562 C 251.744 112.521 253.118 110.495 255.193 108.487 C 258.811 104.966 263.834 103.202 270.25 103.202 L 275.831 103.202 Z" bx:origin="NaN NaN"/>
  <path fill="#9561A8" d="M 315 103.202 L 315 122.66 C 312.397 122.66 310.612 123.144 309.643 124.115 C 308.673 125.085 308.052 127.005 307.789 129.87 C 306.933 139.381 303.247 146.096 296.729 150.014 C 293.272 152.056 288.369 153.078 282.012 153.078 L 279.446 153.078 L 279.446 133.523 L 280.286 133.523 C 283.249 133.523 285.363 132.906 286.63 131.67 C 287.9 130.434 288.632 128.272 288.83 125.177 C 289.092 120.14 289.561 116.603 290.236 114.562 C 290.911 112.521 292.284 110.495 294.358 108.487 C 297.98 104.966 303 103.202 309.42 103.202 L 315 103.202 Z" bx:origin="NaN NaN"/>
  <path fill="#9561A8" d="M 28.229 207.875 C 28.229 206.486 28.722 205.297 29.708 204.305 C 30.692 203.316 31.88 202.82 33.269 202.82 C 34.669 202.82 35.866 203.313 36.856 204.298 C 37.847 205.284 38.343 206.476 38.343 207.876 C 38.343 209.277 37.847 210.47 36.856 211.455 C 35.866 212.44 34.675 212.933 33.286 212.933 C 31.886 212.933 30.692 212.441 29.708 211.455 C 28.721 210.469 28.229 209.277 28.229 207.875 Z" bx:origin="NaN NaN"/>
  <path fill="#9561A8" d="M 72.565 207.795 C 72.565 206.406 73.058 205.217 74.043 204.225 C 75.027 203.236 76.214 202.74 77.604 202.74 C 79.004 202.74 80.201 203.233 81.191 204.218 C 82.182 205.204 82.677 206.396 82.677 207.796 C 82.677 209.197 82.182 210.39 81.191 211.375 C 80.201 212.36 79.01 212.853 77.621 212.853 C 76.22 212.853 75.027 212.361 74.042 211.375 C 73.058 210.389 72.565 209.197 72.565 207.795 Z" bx:origin="NaN NaN"/>
  <path fill="#9561A8" d="M 97.712 207.875 C 97.712 206.486 98.205 205.297 99.19 204.305 C 100.175 203.316 101.362 202.82 102.752 202.82 C 104.152 202.82 105.349 203.313 106.339 204.298 C 107.33 205.284 107.825 206.476 107.825 207.876 C 107.825 209.277 107.33 210.47 106.339 211.455 C 105.349 212.44 104.158 212.933 102.769 212.933 C 101.368 212.933 100.175 212.441 99.19 211.455 C 98.205 210.469 97.712 209.277 97.712 207.875 Z" bx:origin="NaN NaN"/>
  <path fill="#9561A8" d="M 187.112 207.875 C 187.112 206.486 187.604 205.297 188.591 204.305 C 189.574 203.316 190.762 202.82 192.152 202.82 C 193.552 202.82 194.749 203.313 195.739 204.298 C 196.73 205.284 197.225 206.476 197.225 207.876 C 197.225 209.277 196.73 210.47 195.739 211.455 C 194.749 212.44 193.557 212.933 192.17 212.933 C 190.769 212.933 189.575 212.441 188.592 211.455 C 187.604 210.469 187.112 209.277 187.112 207.875 Z" bx:origin="NaN NaN"/>
  <path fill="#9561A8" d="M 233.686 207.875 C 233.686 206.486 234.178 205.297 235.164 204.305 C 236.148 203.316 237.336 202.82 238.726 202.82 C 240.127 202.82 241.322 203.313 242.314 204.298 C 243.303 205.283 243.799 206.476 243.799 207.876 C 243.799 209.277 243.303 210.47 242.314 211.455 C 241.322 212.44 240.132 212.933 238.744 212.933 C 237.343 212.933 236.149 212.441 235.165 211.455 C 234.178 210.469 233.686 209.277 233.686 207.875 Z" bx:origin="NaN NaN"/>
  <path fill="#9561A8" d="M 277.438 207.875 C 277.438 206.486 277.93 205.297 278.916 204.305 C 279.9 203.316 281.087 202.82 282.478 202.82 C 283.879 202.82 285.074 203.313 286.066 204.298 C 287.055 205.283 287.551 206.476 287.551 207.876 C 287.551 209.277 287.055 210.47 286.066 211.455 C 285.074 212.44 283.885 212.933 282.496 212.933 C 281.094 212.933 279.901 212.441 278.917 211.455 C 277.93 210.469 277.438 209.277 277.438 207.875 Z" bx:origin="NaN NaN"/>
  <g transform="matrix(0.999521, 0, 0, 0.999521, -23.27784, -23.411777)" bx:origin="NaN NaN">
    <path fill="#9561A8" d="M143.396,153.957v16.959c-2.668,0.989-5.22,1.484-7.656,1.484c-5.962,0-11.008-2.258-15.142-6.775 c-4.133-4.516-6.2-10.037-6.2-16.563c0-7.051,2.485-13.002,7.458-17.848c4.973-4.845,11.085-7.268,18.329-7.268 c3.855,0,7.543,0.772,11.066,2.325c3.526,1.549,6.292,3.626,8.3,6.229c3.361,4.317,5.04,10.58,5.04,18.786v16.217 c0,8.802-2.494,15.947-7.485,21.435c-4.988,5.487-11.484,8.23-19.489,8.23c-2.439,0-5.517-0.608-9.238-1.827v-16.812 c2.402,1.319,4.842,1.979,7.312,1.979c3.324,0,5.895-1.097,7.705-3.288c1.81-2.193,2.717-5.33,2.717-9.418v-18.542 c0-5.175-2.091-7.763-6.273-7.763c-1.776,0-3.333,0.684-4.667,2.053c-1.334,1.366-2.003,2.942-2.003,4.721 c0,1.879,0.635,3.445,1.902,4.698c1.27,1.253,2.842,1.879,4.72,1.879C141.042,154.849,142.242,154.549,143.396,153.957z"/>
    <path fill="#9561A8" d="M125.301,176.797v17.46c1.188,0.405,2.305,0.738,3.362,1.138l0.09-16.705 C127.625,178.222,126.414,177.432,125.301,176.797z"/>
  </g>
  <path fill="#9561A8" d="M 11.087 28.806 C 11.087 29.65 10.87 30.408 10.435 31.08 C 10 31.753 9.365 32.28 8.527 32.66 C 7.689 33.041 6.696 33.231 5.548 33.231 C 4.172 33.231 3.036 32.971 2.141 32.45 C 1.506 32.077 0.992 31.577 0.595 30.951 C 0.199 30.326 0 29.719 0 29.129 C 0 28.786 0.119 28.493 0.357 28.248 C 0.595 28.005 0.898 27.882 1.265 27.882 C 1.563 27.882 1.816 27.978 2.022 28.167 C 2.229 28.357 2.404 28.64 2.551 29.014 C 2.728 29.458 2.921 29.83 3.127 30.128 C 3.333 30.426 3.623 30.671 3.998 30.865 C 4.372 31.058 4.864 31.155 5.473 31.155 C 6.311 31.155 6.992 30.96 7.514 30.57 C 8.037 30.181 8.3 29.694 8.3 29.11 C 8.3 28.647 8.158 28.271 7.876 27.983 C 7.593 27.694 7.23 27.474 6.782 27.321 C 6.335 27.169 5.736 27.007 4.989 26.836 C 3.986 26.601 3.146 26.326 2.471 26.013 C 1.795 25.699 1.259 25.27 0.863 24.727 C 0.467 24.185 0.268 23.511 0.268 22.705 C 0.268 21.937 0.477 21.256 0.896 20.659 C 1.314 20.062 1.92 19.605 2.714 19.284 C 3.506 18.964 4.44 18.804 5.511 18.804 C 6.368 18.804 7.109 18.91 7.733 19.123 C 8.358 19.335 8.877 19.618 9.29 19.969 C 9.701 20.322 10.003 20.691 10.193 21.078 C 10.383 21.465 10.479 21.843 10.479 22.21 C 10.479 22.547 10.36 22.85 10.122 23.12 C 9.884 23.39 9.587 23.525 9.232 23.525 C 8.909 23.525 8.663 23.444 8.494 23.282 C 8.326 23.12 8.143 22.855 7.947 22.487 C 7.693 21.96 7.388 21.55 7.034 21.255 C 6.679 20.96 6.107 20.812 5.32 20.812 C 4.591 20.812 4.002 20.972 3.555 21.293 C 3.108 21.613 2.885 21.998 2.885 22.449 C 2.885 22.728 2.961 22.97 3.114 23.173 C 3.266 23.376 3.475 23.551 3.741 23.696 C 4.008 23.842 4.277 23.957 4.55 24.038 C 4.823 24.121 5.273 24.242 5.902 24.4 C 6.689 24.584 7.401 24.787 8.038 25.009 C 8.676 25.231 9.219 25.501 9.665 25.818 C 10.112 26.134 10.461 26.536 10.712 27.022 C 10.961 27.507 11.087 28.102 11.087 28.806 Z" bx:origin="NaN NaN"/>
  <path fill="#9561A8" d="M 14.618 21.459 C 14.256 21.459 13.947 21.348 13.689 21.126 C 13.433 20.904 13.304 20.589 13.304 20.183 C 13.304 19.816 13.436 19.513 13.699 19.275 C 13.962 19.037 14.268 18.918 14.618 18.918 C 14.954 18.918 15.252 19.026 15.513 19.241 C 15.772 19.457 15.903 19.771 15.903 20.183 C 15.903 20.583 15.776 20.895 15.523 21.121 C 15.268 21.346 14.966 21.459 14.618 21.459 Z M 15.902 24.142 L 15.902 31.651 C 15.902 32.172 15.778 32.564 15.532 32.831 C 15.284 33.098 14.97 33.231 14.589 33.231 C 14.208 33.231 13.899 33.094 13.661 32.821 C 13.424 32.548 13.305 32.159 13.305 31.651 L 13.305 24.218 C 13.305 23.705 13.424 23.318 13.661 23.057 C 13.899 22.797 14.208 22.666 14.589 22.666 C 14.97 22.666 15.284 22.796 15.532 23.057 C 15.778 23.318 15.902 23.68 15.902 24.142 Z" bx:origin="NaN NaN"/>
  <path fill="#9561A8" d="M 27.228 28.14 L 27.228 31.595 C 27.228 32.141 27.104 32.549 26.856 32.822 C 26.608 33.095 26.281 33.232 25.876 33.232 C 25.482 33.232 25.164 33.095 24.919 32.822 C 24.674 32.549 24.552 32.141 24.552 31.595 L 24.552 27.455 C 24.552 26.801 24.53 26.293 24.486 25.933 C 24.441 25.571 24.32 25.274 24.124 25.043 C 23.928 24.811 23.617 24.695 23.192 24.695 C 22.341 24.695 21.782 24.987 21.512 25.571 C 21.242 26.154 21.107 26.992 21.107 28.084 L 21.107 31.596 C 21.107 32.136 20.985 32.542 20.74 32.818 C 20.496 33.094 20.174 33.233 19.775 33.233 C 19.381 33.233 19.059 33.095 18.809 32.818 C 18.558 32.542 18.433 32.135 18.433 31.596 L 18.433 24.162 C 18.433 23.674 18.545 23.303 18.771 23.049 C 18.996 22.796 19.293 22.668 19.661 22.668 C 20.015 22.668 20.312 22.787 20.55 23.025 C 20.788 23.263 20.907 23.591 20.907 24.009 L 20.907 24.257 C 21.357 23.718 21.84 23.322 22.353 23.068 C 22.867 22.814 23.438 22.687 24.066 22.687 C 24.719 22.687 25.281 22.817 25.751 23.077 C 26.22 23.337 26.607 23.731 26.912 24.257 C 27.35 23.725 27.82 23.33 28.32 23.072 C 28.821 22.815 29.377 22.687 29.986 22.687 C 30.696 22.687 31.309 22.827 31.823 23.106 C 32.337 23.385 32.72 23.785 32.974 24.304 C 33.196 24.774 33.307 25.513 33.307 26.522 L 33.307 31.595 C 33.307 32.141 33.183 32.549 32.936 32.822 C 32.688 33.095 32.361 33.232 31.956 33.232 C 31.562 33.232 31.24 33.094 30.99 32.817 C 30.739 32.541 30.614 32.134 30.614 31.595 L 30.614 27.226 C 30.614 26.667 30.59 26.22 30.542 25.885 C 30.495 25.549 30.366 25.266 30.158 25.037 C 29.948 24.808 29.631 24.694 29.206 24.694 C 28.863 24.694 28.538 24.796 28.23 24.999 C 27.923 25.202 27.684 25.475 27.512 25.818 C 27.323 26.255 27.228 27.029 27.228 28.14 Z" bx:origin="NaN NaN"/>
  <path fill="#9561A8" d="M 38.23 24.123 L 38.23 24.437 C 38.717 23.835 39.225 23.392 39.752 23.109 C 40.278 22.827 40.874 22.686 41.541 22.686 C 42.341 22.686 43.076 22.892 43.749 23.305 C 44.421 23.718 44.952 24.32 45.343 25.113 C 45.733 25.906 45.928 26.845 45.928 27.93 C 45.928 28.729 45.815 29.464 45.59 30.133 C 45.364 30.802 45.055 31.363 44.663 31.818 C 44.269 32.272 43.804 32.62 43.268 32.864 C 42.732 33.108 42.156 33.231 41.541 33.231 C 40.798 33.231 40.175 33.082 39.671 32.783 C 39.166 32.485 38.686 32.048 38.23 31.47 L 38.23 35.372 C 38.23 36.514 37.814 37.085 36.982 37.085 C 36.494 37.085 36.17 36.938 36.012 36.642 C 35.853 36.348 35.774 35.918 35.774 35.353 L 35.774 24.142 C 35.774 23.648 35.882 23.278 36.098 23.034 C 36.313 22.79 36.608 22.667 36.982 22.667 C 37.35 22.667 37.65 22.792 37.882 23.043 C 38.113 23.294 38.23 23.654 38.23 24.123 Z M 43.32 27.902 C 43.32 27.216 43.216 26.628 43.006 26.135 C 42.797 25.644 42.507 25.266 42.136 25.003 C 41.765 24.739 41.354 24.607 40.903 24.607 C 40.187 24.607 39.582 24.89 39.09 25.455 C 38.598 26.02 38.353 26.85 38.353 27.949 C 38.353 28.983 38.596 29.787 39.085 30.361 C 39.574 30.936 40.18 31.223 40.903 31.223 C 41.335 31.223 41.735 31.098 42.103 30.847 C 42.471 30.596 42.766 30.221 42.988 29.72 C 43.209 29.218 43.32 28.612 43.32 27.902 Z" bx:origin="NaN NaN"/>
  <path fill="#9561A8" d="M 48.013 31.651 L 48.013 20.383 C 48.013 19.863 48.129 19.47 48.36 19.203 C 48.592 18.936 48.904 18.804 49.297 18.804 C 49.691 18.804 50.008 18.935 50.249 19.199 C 50.49 19.462 50.611 19.857 50.611 20.383 L 50.611 31.651 C 50.611 32.178 50.489 32.572 50.244 32.836 C 50 33.1 49.684 33.232 49.297 33.232 C 48.917 33.232 48.608 33.095 48.37 32.822 C 48.131 32.549 48.013 32.16 48.013 31.651 Z" bx:origin="NaN NaN"/>
  <path fill="#9561A8" d="M 60.546 28.587 L 55.464 28.587 C 55.47 29.177 55.589 29.698 55.821 30.149 C 56.052 30.599 56.361 30.938 56.744 31.167 C 57.128 31.396 57.551 31.51 58.014 31.51 C 58.325 31.51 58.609 31.473 58.866 31.401 C 59.123 31.328 59.372 31.213 59.613 31.058 C 59.854 30.902 60.076 30.736 60.279 30.558 C 60.482 30.38 60.746 30.14 61.07 29.835 C 61.203 29.721 61.394 29.664 61.64 29.664 C 61.907 29.664 62.122 29.737 62.287 29.883 C 62.452 30.029 62.535 30.235 62.535 30.501 C 62.535 30.736 62.443 31.01 62.259 31.325 C 62.075 31.639 61.798 31.941 61.427 32.229 C 61.056 32.517 60.589 32.756 60.028 32.947 C 59.466 33.137 58.821 33.233 58.091 33.233 C 56.422 33.233 55.125 32.756 54.198 31.805 C 53.271 30.853 52.809 29.562 52.809 27.932 C 52.809 27.164 52.923 26.452 53.152 25.795 C 53.38 25.138 53.713 24.575 54.151 24.105 C 54.589 23.636 55.129 23.276 55.769 23.025 C 56.41 22.774 57.121 22.649 57.901 22.649 C 58.916 22.649 59.787 22.863 60.513 23.292 C 61.24 23.72 61.783 24.273 62.145 24.952 C 62.507 25.632 62.688 26.322 62.688 27.027 C 62.688 27.681 62.5 28.104 62.126 28.297 C 61.751 28.49 61.225 28.587 60.546 28.587 Z M 55.464 27.112 L 60.175 27.112 C 60.112 26.223 59.872 25.559 59.457 25.118 C 59.041 24.677 58.494 24.456 57.814 24.456 C 57.168 24.456 56.636 24.68 56.22 25.127 C 55.805 25.575 55.552 26.236 55.464 27.112 Z" bx:origin="NaN NaN"/>
  <path fill="#F69D9A" d="M 65.96 25.951 C 65.96 25.177 66.235 24.513 66.784 23.962 C 67.333 23.41 67.994 23.134 68.768 23.134 C 69.549 23.134 70.214 23.408 70.767 23.958 C 71.319 24.506 71.595 25.171 71.595 25.952 C 71.595 26.732 71.319 27.397 70.767 27.946 C 70.215 28.494 69.552 28.769 68.778 28.769 C 67.998 28.769 67.334 28.495 66.784 27.946 C 66.235 27.396 65.96 26.731 65.96 25.951 Z" bx:origin="NaN NaN"/>
  <path fill="#9561A8" d="M 81.491 32.993 L 77.227 32.993 C 76.611 32.993 76.172 32.855 75.909 32.579 C 75.646 32.304 75.514 31.864 75.514 31.261 L 75.514 20.774 C 75.514 20.158 75.649 19.716 75.919 19.447 C 76.188 19.177 76.624 19.042 77.227 19.042 L 81.747 19.042 C 82.413 19.042 82.99 19.084 83.479 19.166 C 83.967 19.249 84.405 19.408 84.791 19.643 C 85.121 19.839 85.413 20.088 85.667 20.389 C 85.921 20.691 86.115 21.024 86.248 21.389 C 86.381 21.754 86.448 22.138 86.448 22.545 C 86.448 23.941 85.749 24.962 84.354 25.61 C 86.187 26.193 87.103 27.329 87.103 29.017 C 87.103 29.798 86.903 30.5 86.504 31.125 C 86.105 31.75 85.565 32.212 84.886 32.51 C 84.461 32.688 83.973 32.813 83.42 32.886 C 82.871 32.957 82.227 32.993 81.491 32.993 Z M 78.34 21.164 L 78.34 24.77 L 80.929 24.77 C 81.633 24.77 82.178 24.704 82.561 24.57 C 82.945 24.437 83.238 24.183 83.442 23.809 C 83.6 23.542 83.68 23.245 83.68 22.914 C 83.68 22.209 83.429 21.742 82.928 21.51 C 82.427 21.279 81.663 21.163 80.635 21.163 L 78.34 21.163 Z M 81.281 26.798 L 78.34 26.798 L 78.34 30.871 L 81.376 30.871 C 83.286 30.871 84.241 30.183 84.241 28.806 C 84.241 28.102 83.993 27.592 83.498 27.274 C 83.004 26.957 82.265 26.798 81.281 26.798 Z" bx:origin="NaN NaN"/>
  <path fill="#9561A8" d="M 95.937 31.766 C 95.309 32.255 94.702 32.62 94.115 32.865 C 93.528 33.109 92.869 33.232 92.14 33.232 C 91.473 33.232 90.888 33.1 90.384 32.836 C 89.88 32.573 89.49 32.217 89.218 31.766 C 88.945 31.316 88.808 30.827 88.808 30.3 C 88.808 29.59 89.033 28.984 89.484 28.482 C 89.934 27.982 90.553 27.645 91.339 27.474 C 91.504 27.436 91.913 27.35 92.568 27.217 C 93.22 27.083 93.781 26.961 94.247 26.85 C 94.714 26.739 95.219 26.604 95.765 26.445 C 95.733 25.76 95.595 25.258 95.35 24.937 C 95.106 24.617 94.601 24.456 93.832 24.456 C 93.172 24.456 92.676 24.548 92.343 24.732 C 92.01 24.916 91.724 25.192 91.486 25.56 C 91.248 25.929 91.08 26.17 90.982 26.288 C 90.883 26.406 90.673 26.464 90.35 26.464 C 90.058 26.464 89.806 26.37 89.593 26.183 C 89.38 25.996 89.274 25.757 89.274 25.465 C 89.274 25.008 89.436 24.564 89.76 24.132 C 90.084 23.701 90.589 23.346 91.273 23.067 C 91.958 22.788 92.812 22.648 93.833 22.648 C 94.975 22.648 95.873 22.783 96.527 23.052 C 97.179 23.322 97.641 23.749 97.911 24.332 C 98.181 24.916 98.316 25.69 98.316 26.654 C 98.316 27.263 98.314 27.781 98.311 28.205 C 98.308 28.63 98.303 29.103 98.296 29.623 C 98.296 30.112 98.377 30.62 98.539 31.15 C 98.701 31.68 98.782 32.021 98.782 32.173 C 98.782 32.439 98.657 32.681 98.406 32.901 C 98.155 33.12 97.871 33.23 97.554 33.23 C 97.287 33.23 97.024 33.105 96.764 32.854 C 96.505 32.604 96.229 32.242 95.937 31.766 Z M 95.766 28.007 C 95.385 28.147 94.832 28.293 94.105 28.449 C 93.378 28.604 92.875 28.719 92.597 28.792 C 92.318 28.865 92.051 29.008 91.797 29.22 C 91.543 29.433 91.416 29.73 91.416 30.111 C 91.416 30.504 91.565 30.838 91.863 31.114 C 92.161 31.39 92.552 31.528 93.033 31.528 C 93.547 31.528 94.022 31.415 94.456 31.19 C 94.891 30.964 95.209 30.674 95.412 30.318 C 95.647 29.926 95.765 29.278 95.765 28.377 L 95.765 28.007 Z" bx:origin="NaN NaN"/>
  <path fill="#9561A8" d="M 109.319 29.834 C 109.319 30.55 109.144 31.165 108.796 31.675 C 108.446 32.186 107.931 32.572 107.25 32.836 C 106.567 33.1 105.737 33.232 104.761 33.232 C 103.827 33.232 103.029 33.089 102.363 32.803 C 101.696 32.517 101.204 32.161 100.888 31.733 C 100.571 31.305 100.412 30.875 100.412 30.443 C 100.412 30.158 100.514 29.914 100.717 29.711 C 100.92 29.508 101.177 29.406 101.487 29.406 C 101.759 29.406 101.969 29.473 102.115 29.606 C 102.261 29.739 102.401 29.927 102.534 30.168 C 102.801 30.631 103.12 30.977 103.49 31.205 C 103.862 31.434 104.367 31.548 105.009 31.548 C 105.529 31.548 105.956 31.432 106.289 31.2 C 106.622 30.969 106.789 30.703 106.789 30.405 C 106.789 29.949 106.616 29.616 106.27 29.406 C 105.924 29.197 105.355 28.997 104.562 28.806 C 103.667 28.584 102.939 28.35 102.378 28.107 C 101.816 27.862 101.367 27.54 101.032 27.141 C 100.695 26.741 100.527 26.249 100.527 25.666 C 100.527 25.145 100.682 24.654 100.994 24.19 C 101.304 23.728 101.763 23.358 102.368 23.082 C 102.974 22.806 103.705 22.667 104.562 22.667 C 105.235 22.667 105.838 22.737 106.375 22.877 C 106.911 23.017 107.359 23.204 107.716 23.439 C 108.075 23.674 108.348 23.934 108.535 24.219 C 108.723 24.505 108.816 24.784 108.816 25.057 C 108.816 25.355 108.716 25.599 108.516 25.79 C 108.316 25.98 108.032 26.076 107.664 26.076 C 107.398 26.076 107.171 26 106.984 25.847 C 106.796 25.695 106.582 25.466 106.341 25.161 C 106.144 24.907 105.913 24.704 105.646 24.552 C 105.379 24.4 105.019 24.323 104.562 24.323 C 104.092 24.323 103.702 24.423 103.391 24.623 C 103.08 24.823 102.925 25.072 102.925 25.37 C 102.925 25.643 103.039 25.867 103.268 26.041 C 103.496 26.215 103.803 26.359 104.191 26.473 C 104.578 26.587 105.111 26.727 105.79 26.892 C 106.596 27.089 107.254 27.324 107.765 27.597 C 108.276 27.87 108.663 28.191 108.927 28.562 C 109.187 28.934 109.319 29.358 109.319 29.834 Z" bx:origin="NaN NaN"/>
  <path fill="#9561A8" d="M 112.83 21.459 C 112.468 21.459 112.159 21.348 111.901 21.126 C 111.644 20.904 111.516 20.589 111.516 20.183 C 111.516 19.816 111.647 19.513 111.911 19.275 C 112.174 19.037 112.48 18.918 112.83 18.918 C 113.166 18.918 113.464 19.026 113.724 19.241 C 113.984 19.457 114.115 19.771 114.115 20.183 C 114.115 20.583 113.988 20.895 113.734 21.121 C 113.481 21.346 113.179 21.459 112.83 21.459 Z M 114.114 24.142 L 114.114 31.651 C 114.114 32.172 113.99 32.564 113.743 32.831 C 113.496 33.098 113.182 33.231 112.801 33.231 C 112.42 33.231 112.111 33.094 111.873 32.821 C 111.635 32.548 111.517 32.159 111.517 31.651 L 111.517 24.218 C 111.517 23.705 111.635 23.318 111.873 23.057 C 112.111 22.797 112.42 22.666 112.801 22.666 C 113.182 22.666 113.496 22.796 113.743 23.057 C 113.99 23.318 114.114 23.68 114.114 24.142 Z" bx:origin="NaN NaN"/>
  <path fill="#9561A8" d="M 126.116 30.015 C 126.116 30.338 126.019 30.684 125.825 31.052 C 125.632 31.42 125.336 31.771 124.94 32.104 C 124.543 32.436 124.044 32.705 123.441 32.907 C 122.838 33.11 122.159 33.212 121.405 33.212 C 119.8 33.212 118.546 32.744 117.646 31.809 C 116.745 30.873 116.294 29.619 116.294 28.045 C 116.294 26.979 116.5 26.037 116.913 25.218 C 117.325 24.4 117.921 23.767 118.702 23.32 C 119.482 22.873 120.415 22.649 121.5 22.649 C 122.172 22.649 122.79 22.747 123.351 22.944 C 123.913 23.141 124.388 23.395 124.778 23.706 C 125.169 24.016 125.467 24.348 125.673 24.7 C 125.88 25.052 125.983 25.381 125.983 25.685 C 125.983 25.996 125.867 26.259 125.635 26.474 C 125.404 26.69 125.122 26.798 124.793 26.798 C 124.577 26.798 124.397 26.742 124.255 26.631 C 124.113 26.52 123.953 26.341 123.775 26.093 C 123.458 25.612 123.126 25.25 122.78 25.009 C 122.434 24.768 121.995 24.647 121.462 24.647 C 120.694 24.647 120.075 24.947 119.607 25.547 C 119.137 26.146 118.902 26.966 118.902 28.007 C 118.902 28.495 118.962 28.944 119.083 29.353 C 119.203 29.763 119.378 30.112 119.606 30.399 C 119.835 30.688 120.11 30.907 120.433 31.056 C 120.757 31.205 121.112 31.28 121.499 31.28 C 122.02 31.28 122.465 31.159 122.836 30.918 C 123.208 30.677 123.536 30.309 123.821 29.815 C 123.98 29.523 124.15 29.294 124.335 29.129 C 124.519 28.964 124.744 28.881 125.011 28.881 C 125.328 28.881 125.592 29.002 125.801 29.243 C 126.012 29.485 126.116 29.742 126.116 30.015 Z" bx:origin="NaN NaN"/>
  <path fill="#F69D9A" d="M 129.465 25.951 C 129.465 25.177 129.74 24.513 130.289 23.962 C 130.837 23.41 131.499 23.134 132.273 23.134 C 133.053 23.134 133.719 23.408 134.272 23.958 C 134.823 24.506 135.099 25.171 135.099 25.952 C 135.099 26.732 134.823 27.397 134.272 27.946 C 133.72 28.494 133.056 28.769 132.283 28.769 C 131.503 28.769 130.838 28.495 130.289 27.946 C 129.74 27.396 129.465 26.731 129.465 25.951 Z" bx:origin="NaN NaN"/>
  <path fill="#9561A8" d="M 148.231 21.221 L 141.864 21.221 L 141.864 24.647 L 147.726 24.647 C 148.158 24.647 148.48 24.744 148.693 24.938 C 148.905 25.132 149.012 25.387 149.012 25.705 C 149.012 26.023 148.907 26.28 148.698 26.48 C 148.488 26.68 148.165 26.78 147.726 26.78 L 141.864 26.78 L 141.864 30.749 L 148.45 30.749 C 148.894 30.749 149.228 30.852 149.454 31.059 C 149.679 31.265 149.792 31.539 149.792 31.882 C 149.792 32.213 149.679 32.48 149.454 32.686 C 149.228 32.893 148.894 32.996 148.45 32.996 L 140.77 32.996 C 140.154 32.996 139.711 32.86 139.442 32.587 C 139.172 32.315 139.037 31.874 139.037 31.264 L 139.037 20.774 C 139.037 20.368 139.097 20.036 139.218 19.78 C 139.338 19.523 139.527 19.336 139.784 19.218 C 140.041 19.1 140.369 19.042 140.769 19.042 L 148.23 19.042 C 148.681 19.042 149.016 19.142 149.233 19.342 C 149.452 19.542 149.562 19.804 149.562 20.127 C 149.562 20.457 149.453 20.722 149.233 20.922 C 149.017 21.121 148.682 21.221 148.231 21.221 Z" bx:origin="NaN NaN"/>
  <path fill="#9561A8" d="M 151.647 22.896 L 152.266 22.896 L 152.266 22.116 C 152.266 21.304 152.369 20.659 152.576 20.179 C 152.782 19.701 153.131 19.352 153.622 19.133 C 154.114 18.914 154.789 18.805 155.644 18.805 C 157.161 18.805 157.919 19.176 157.919 19.918 C 157.919 20.159 157.84 20.366 157.682 20.537 C 157.522 20.709 157.336 20.794 157.12 20.794 C 157.018 20.794 156.844 20.775 156.596 20.737 C 156.349 20.699 156.139 20.68 155.968 20.68 C 155.498 20.68 155.198 20.818 155.064 21.094 C 154.931 21.37 154.864 21.765 154.864 22.279 L 154.864 22.898 L 155.501 22.898 C 156.491 22.898 156.986 23.197 156.986 23.794 C 156.986 24.218 156.854 24.488 156.591 24.602 C 156.327 24.716 155.964 24.773 155.501 24.773 L 154.864 24.773 L 154.864 31.654 C 154.864 32.169 154.741 32.559 154.497 32.829 C 154.252 33.099 153.936 33.234 153.549 33.234 C 153.182 33.234 152.876 33.099 152.632 32.829 C 152.387 32.559 152.265 32.168 152.265 31.654 L 152.265 24.773 L 151.551 24.773 C 151.164 24.773 150.866 24.686 150.656 24.511 C 150.447 24.336 150.342 24.11 150.342 23.831 C 150.344 23.207 150.779 22.896 151.647 22.896 Z" bx:origin="NaN NaN"/>
  <path fill="#9561A8" d="M 158.862 22.896 L 159.481 22.896 L 159.481 22.116 C 159.481 21.304 159.585 20.659 159.79 20.179 C 159.996 19.701 160.346 19.352 160.838 19.133 C 161.329 18.914 162.003 18.805 162.86 18.805 C 164.375 18.805 165.134 19.176 165.134 19.918 C 165.134 20.159 165.054 20.366 164.896 20.537 C 164.737 20.709 164.55 20.794 164.333 20.794 C 164.231 20.794 164.058 20.775 163.81 20.737 C 163.563 20.699 163.354 20.68 163.182 20.68 C 162.713 20.68 162.411 20.818 162.278 21.094 C 162.145 21.37 162.079 21.765 162.079 22.279 L 162.079 22.898 L 162.717 22.898 C 163.707 22.898 164.201 23.197 164.201 23.794 C 164.201 24.218 164.069 24.488 163.806 24.602 C 163.543 24.716 163.18 24.773 162.716 24.773 L 162.078 24.773 L 162.078 31.654 C 162.078 32.169 161.955 32.559 161.711 32.829 C 161.468 33.099 161.151 33.234 160.765 33.234 C 160.397 33.234 160.091 33.099 159.847 32.829 C 159.602 32.559 159.481 32.168 159.481 31.654 L 159.481 24.773 L 158.766 24.773 C 158.379 24.773 158.08 24.686 157.871 24.511 C 157.662 24.336 157.557 24.11 157.557 23.831 C 157.557 23.207 157.992 22.896 158.862 22.896 Z" bx:origin="NaN NaN"/>
  <path fill="#9561A8" d="M 172.556 28.587 L 167.475 28.587 C 167.481 29.177 167.6 29.698 167.832 30.149 C 168.062 30.599 168.37 30.938 168.755 31.167 C 169.139 31.396 169.562 31.51 170.026 31.51 C 170.336 31.51 170.619 31.473 170.877 31.401 C 171.134 31.328 171.383 31.213 171.625 31.058 C 171.865 30.902 172.088 30.736 172.29 30.558 C 172.493 30.38 172.757 30.14 173.08 29.835 C 173.214 29.721 173.403 29.664 173.651 29.664 C 173.918 29.664 174.133 29.737 174.297 29.883 C 174.462 30.029 174.544 30.235 174.544 30.501 C 174.544 30.736 174.452 31.01 174.269 31.325 C 174.085 31.639 173.808 31.941 173.436 32.229 C 173.065 32.517 172.598 32.756 172.039 32.947 C 171.476 33.137 170.83 33.233 170.101 33.233 C 168.432 33.233 167.134 32.756 166.208 31.805 C 165.281 30.853 164.818 29.562 164.818 27.932 C 164.818 27.164 164.932 26.452 165.161 25.795 C 165.39 25.138 165.723 24.575 166.159 24.105 C 166.598 23.636 167.138 23.276 167.778 23.025 C 168.418 22.774 169.129 22.649 169.91 22.649 C 170.925 22.649 171.796 22.863 172.521 23.292 C 173.249 23.72 173.792 24.273 174.154 24.952 C 174.516 25.632 174.696 26.322 174.696 27.027 C 174.696 27.681 174.508 28.104 174.136 28.297 C 173.763 28.49 173.235 28.587 172.556 28.587 Z M 167.475 27.112 L 172.185 27.112 C 172.122 26.223 171.883 25.559 171.467 25.118 C 171.051 24.677 170.504 24.456 169.825 24.456 C 169.179 24.456 168.646 24.68 168.231 25.127 C 167.817 25.575 167.564 26.236 167.475 27.112 Z" bx:origin="NaN NaN"/>
  <path fill="#9561A8" d="M 186.204 30.015 C 186.204 30.338 186.108 30.684 185.914 31.052 C 185.721 31.42 185.425 31.771 185.028 32.104 C 184.632 32.436 184.133 32.705 183.529 32.907 C 182.926 33.11 182.249 33.212 181.493 33.212 C 179.889 33.212 178.635 32.744 177.734 31.809 C 176.833 30.873 176.381 29.619 176.381 28.045 C 176.381 26.979 176.588 26.037 177 25.218 C 177.412 24.4 178.01 23.767 178.79 23.32 C 179.569 22.873 180.502 22.649 181.588 22.649 C 182.26 22.649 182.877 22.747 183.439 22.944 C 184.002 23.141 184.477 23.395 184.866 23.706 C 185.257 24.016 185.555 24.348 185.762 24.7 C 185.968 25.052 186.072 25.381 186.072 25.685 C 186.072 25.996 185.957 26.259 185.724 26.474 C 185.493 26.69 185.211 26.798 184.882 26.798 C 184.665 26.798 184.487 26.742 184.344 26.631 C 184.201 26.52 184.041 26.341 183.864 26.093 C 183.547 25.612 183.216 25.25 182.869 25.009 C 182.524 24.768 182.084 24.647 181.551 24.647 C 180.783 24.647 180.165 24.947 179.697 25.547 C 179.226 26.146 178.992 26.966 178.992 28.007 C 178.992 28.495 179.053 28.944 179.174 29.353 C 179.293 29.763 179.469 30.112 179.697 30.399 C 179.926 30.688 180.201 30.907 180.524 31.056 C 180.848 31.205 181.203 31.28 181.59 31.28 C 182.11 31.28 182.556 31.159 182.927 30.918 C 183.298 30.677 183.626 30.309 183.911 29.815 C 184.07 29.523 184.241 29.294 184.427 29.129 C 184.611 28.964 184.834 28.881 185.102 28.881 C 185.418 28.881 185.682 29.002 185.891 29.243 C 186.101 29.485 186.204 29.742 186.204 30.015 Z" bx:origin="NaN NaN"/>
  <path fill="#9561A8" d="M 188.613 22.896 L 188.897 22.896 L 188.897 21.335 C 188.897 20.916 188.909 20.588 188.93 20.35 C 188.952 20.112 189.014 19.908 189.116 19.737 C 189.218 19.56 189.364 19.415 189.554 19.304 C 189.745 19.193 189.958 19.137 190.193 19.137 C 190.523 19.137 190.822 19.261 191.087 19.508 C 191.265 19.674 191.378 19.874 191.425 20.112 C 191.474 20.35 191.497 20.688 191.497 21.126 L 191.497 22.896 L 192.448 22.896 C 192.817 22.896 193.097 22.983 193.291 23.158 C 193.484 23.332 193.581 23.556 193.581 23.829 C 193.581 24.177 193.443 24.421 193.167 24.561 C 192.892 24.701 192.497 24.77 191.982 24.77 L 191.497 24.77 L 191.497 29.548 C 191.497 29.954 191.511 30.266 191.54 30.485 C 191.568 30.704 191.644 30.881 191.769 31.018 C 191.892 31.154 192.093 31.223 192.373 31.223 C 192.525 31.223 192.732 31.196 192.991 31.142 C 193.252 31.088 193.455 31.061 193.6 31.061 C 193.81 31.061 193.998 31.145 194.166 31.313 C 194.335 31.481 194.419 31.689 194.419 31.937 C 194.419 32.355 194.19 32.675 193.733 32.897 C 193.276 33.119 192.619 33.231 191.762 33.231 C 190.949 33.231 190.335 33.094 189.917 32.821 C 189.497 32.548 189.223 32.172 189.093 31.689 C 188.962 31.207 188.898 30.563 188.898 29.757 L 188.898 24.77 L 188.556 24.77 C 188.182 24.77 187.896 24.681 187.7 24.503 C 187.503 24.325 187.405 24.1 187.405 23.828 C 187.405 23.555 187.508 23.331 187.714 23.157 C 187.92 22.983 188.219 22.896 188.613 22.896 Z" bx:origin="NaN NaN"/>
  <path fill="#9561A8" d="M 196.683 21.459 C 196.322 21.459 196.011 21.348 195.754 21.126 C 195.497 20.904 195.368 20.589 195.368 20.183 C 195.368 19.816 195.5 19.513 195.764 19.275 C 196.027 19.037 196.333 18.918 196.683 18.918 C 197.019 18.918 197.317 19.026 197.577 19.241 C 197.837 19.457 197.968 19.771 197.968 20.183 C 197.968 20.583 197.841 20.895 197.587 21.121 C 197.333 21.346 197.032 21.459 196.683 21.459 Z M 197.968 24.142 L 197.968 31.651 C 197.968 32.172 197.845 32.564 197.597 32.831 C 197.349 33.098 197.035 33.231 196.655 33.231 C 196.275 33.231 195.966 33.094 195.727 32.821 C 195.488 32.548 195.37 32.159 195.37 31.651 L 195.37 24.218 C 195.37 23.705 195.489 23.318 195.727 23.057 C 195.965 22.796 196.274 22.666 196.655 22.666 C 197.036 22.666 197.349 22.796 197.597 23.057 C 197.845 23.318 197.968 23.68 197.968 24.142 Z" bx:origin="NaN NaN"/>
  <path fill="#9561A8" d="M 202.488 24.285 L 204.591 30.186 L 206.856 24.027 C 207.034 23.533 207.209 23.182 207.379 22.976 C 207.551 22.77 207.81 22.666 208.159 22.666 C 208.489 22.666 208.77 22.777 209.002 22.999 C 209.234 23.221 209.349 23.478 209.349 23.77 C 209.349 23.884 209.329 24.017 209.288 24.169 C 209.246 24.321 209.198 24.464 209.144 24.597 C 209.09 24.73 209.028 24.883 208.958 25.054 L 206.464 31.24 C 206.395 31.418 206.304 31.643 206.193 31.916 C 206.083 32.189 205.959 32.421 205.822 32.615 C 205.685 32.808 205.517 32.959 205.319 33.067 C 205.119 33.175 204.876 33.229 204.59 33.229 C 204.221 33.229 203.928 33.145 203.709 32.977 C 203.49 32.809 203.329 32.624 203.224 32.425 C 203.12 32.226 202.944 31.831 202.697 31.24 L 200.221 25.121 C 200.164 24.969 200.106 24.816 200.045 24.664 C 199.984 24.512 199.934 24.356 199.893 24.197 C 199.852 24.038 199.83 23.903 199.83 23.789 C 199.83 23.611 199.885 23.435 199.992 23.26 C 200.1 23.086 200.25 22.943 200.439 22.832 C 200.63 22.721 200.836 22.665 201.058 22.665 C 201.489 22.665 201.786 22.789 201.948 23.037 C 202.11 23.285 202.292 23.702 202.488 24.285 Z" bx:origin="NaN NaN"/>
  <path fill="#9561A8" d="M 218.21 28.587 L 213.129 28.587 C 213.135 29.177 213.254 29.698 213.485 30.149 C 213.716 30.599 214.024 30.938 214.407 31.167 C 214.792 31.396 215.216 31.51 215.678 31.51 C 215.988 31.51 216.273 31.473 216.53 31.401 C 216.787 31.328 217.036 31.213 217.277 31.058 C 217.518 30.902 217.74 30.736 217.943 30.558 C 218.145 30.38 218.409 30.14 218.733 29.835 C 218.866 29.721 219.057 29.664 219.304 29.664 C 219.571 29.664 219.786 29.737 219.951 29.883 C 220.115 30.029 220.198 30.235 220.198 30.501 C 220.198 30.736 220.105 31.01 219.922 31.325 C 219.738 31.639 219.461 31.941 219.09 32.229 C 218.719 32.517 218.252 32.756 217.691 32.947 C 217.129 33.137 216.484 33.233 215.754 33.233 C 214.084 33.233 212.788 32.756 211.86 31.805 C 210.935 30.853 210.471 29.562 210.471 27.932 C 210.471 27.164 210.585 26.452 210.814 25.795 C 211.043 25.138 211.377 24.575 211.813 24.105 C 212.25 23.636 212.79 23.276 213.432 23.025 C 214.072 22.774 214.783 22.649 215.564 22.649 C 216.578 22.649 217.45 22.863 218.175 23.292 C 218.902 23.72 219.446 24.273 219.808 24.952 C 220.168 25.632 220.35 26.322 220.35 27.027 C 220.35 27.681 220.162 28.104 219.788 28.297 C 219.415 28.49 218.888 28.587 218.21 28.587 Z M 213.129 27.112 L 217.84 27.112 C 217.776 26.223 217.536 25.559 217.121 25.118 C 216.705 24.677 216.157 24.456 215.479 24.456 C 214.831 24.456 214.299 24.68 213.883 25.127 C 213.468 25.575 213.216 26.236 213.129 27.112 Z" bx:origin="NaN NaN"/>
  <g transform="matrix(0.999521, 0, 0, 0.999521, -23.27784, -23.411777)" bx:origin="NaN NaN">
    <path fill="#009444" stroke="#369E47" stroke-miterlimit="10" d="M 277.528 40.779 C 296.348 52.602 302.45 72.494 302.45 72.494 C 309.161 87.597 300.767 112.303 300.767 112.303 C 316.719 129.96 311.257 133.488 311.257 133.488 C 307.591 140.324 303.683 135.102 303.683 135.102 C 302.935 121.756 294.956 116.006 294.956 116.006 C 281.959 116.213 267.893 105.937 267.893 105.937 C 253.254 96.25 252.753 69.861 252.753 69.861 C 247.997 35.528 233.309 23.423 233.309 23.423 C 253.889 26.022 277.526 40.779 277.528 40.779 Z M 241.167 27.808 C 240.942 28.135 241.025 28.582 241.351 28.808 L 241.394 28.837 C 242.935 29.898 244.411 31.273 245.769 32.669 C 247.134 34.083 248.413 35.583 249.614 37.144 C 252.015 40.268 254.125 43.616 255.992 47.091 C 259.727 54.047 262.517 61.487 264.661 69.089 C 265.195 70.991 265.692 72.904 266.146 74.827 C 266.688 76.952 267.363 78.851 268.125 80.795 C 269.655 84.642 271.553 88.347 273.838 91.841 C 278.375 98.808 284.677 104.973 292.493 108.685 L 292.526 108.701 C 292.562 108.718 292.599 108.734 292.636 108.75 C 294.102 109.366 295.791 108.676 296.407 107.209 C 297.023 105.742 296.334 104.053 294.867 103.437 C 288.023 100.563 282.16 95.414 277.696 89.193 C 275.455 86.083 273.526 82.71 271.938 79.185 C 271.156 77.439 270.414 75.584 269.889 73.85 C 269.335 71.9 268.738 69.962 268.102 68.036 C 265.553 60.34 262.346 52.829 258.182 45.848 C 256.102 42.36 253.776 39.012 251.153 35.901 C 249.841 34.347 248.45 32.856 246.971 31.453 C 245.471 30.055 243.952 28.739 242.139 27.607 C 241.814 27.406 241.385 27.492 241.167 27.808 Z"/>
  </g>
  <path fill="#9561A8" d="M 141.607 207.715 C 141.607 206.326 142.099 205.137 143.085 204.145 C 144.069 203.156 145.257 202.66 146.647 202.66 C 148.048 202.66 149.243 203.153 150.235 204.138 C 151.225 205.123 151.72 206.316 151.72 207.716 C 151.72 209.117 151.225 210.31 150.235 211.295 C 149.243 212.28 148.053 212.773 146.665 212.773 C 145.264 212.773 144.07 212.281 143.086 211.295 C 142.099 210.309 141.607 209.117 141.607 207.715 Z" bx:origin="NaN NaN"/>
</svg>