<?xml version="1.0" encoding="utf-8"?>
<svg version="1.1" id="Layer_1" x="0px" y="0px" width="360px" height="288px" viewBox="0 0 360 288" enable-background="new 0 0 360 288" xmlns="http://www.w3.org/2000/svg">
  <line fill="#009444" stroke="#009444" stroke-width="5" stroke-miterlimit="10" x1="23.587" y1="208.097" x2="338.44" y2="208.097"/>
  <line fill="none" x1="23.992" y1="258.84" x2="375.953" y2="255.912"/>
  <line fill="#39B54A" stroke="#009444" stroke-width="5" stroke-miterlimit="10" x1="23.671" y1="254.696" x2="338.44" y2="254.696"/>
  <g>
    <path fill="#F69D9A" d="M37.537,194.387v-28.248c4.83,1.854,9.061,2.783,12.685,2.783c11.573,0,19.074-5.941,22.508-17.818 c-6.231,3.358-12.336,5.039-18.311,5.039c-8.841,0-16.119-2.997-21.842-8.995c-5.721-5.998-8.584-13.63-8.584-22.902V69.75h35.672 v46.586c0,5.158,2.351,7.736,7.058,7.736c4.512,0,6.771-2.84,6.771-8.519V69.75h35.671v77.355c0,14.429-4.451,26.072-13.353,34.937 c-10.621,10.548-23.464,15.821-38.532,15.821C50.664,197.863,44.085,196.704,37.537,194.387z"/>
    <path fill="#F69D9A" d="M139.964,66.261c6.981,0,12.968,2.512,17.956,7.537c4.992,5.022,7.486,11.039,7.486,18.054 c0,7.116-2.528,13.176-7.583,18.183c-5.055,5.006-11.158,7.51-18.304,7.51s-13.258-2.513-18.329-7.534 c-5.074-5.022-7.607-11.076-7.607-18.158c0-7.21,2.534-13.279,7.607-18.204C126.26,68.725,132.519,66.261,139.964,66.261z M139.47,84.492c-1.979,0-3.657,0.718-5.04,2.149c-1.383,1.432-2.076,3.187-2.076,5.263c0,2.042,0.699,3.785,2.101,5.235 c1.401,1.45,3.071,2.173,5.016,2.173c1.975,0,3.663-0.723,5.064-2.173c1.398-1.45,2.097-3.193,2.097-5.235 c0-2.076-0.69-3.832-2.073-5.263C143.173,85.21,141.479,84.492,139.47,84.492z"/>
    <path fill="#F69D9A" d="M169.063,69.75h18.476v27.814c0,2.799,1.169,4.201,3.508,4.201c2.305,0,3.458-1.401,3.458-4.201V69.75 h18.479v27.469c0,6.39-2.124,11.784-6.374,16.18s-9.455,6.594-15.611,6.594c-7.016,0-12.664-2.552-16.947-7.656 c-3.327-3.984-4.988-9.519-4.988-16.601V69.75z"/>
    <path fill="#F69D9A" d="M244.03,68.566v19.761c-1.282-0.724-2.451-1.087-3.505-1.087c-3.361,0-5.04,2.567-5.04,7.706v23.369 h-18.478V91.389c0-7.113,1.943-12.785,5.83-17.019c3.887-4.231,9.072-6.347,15.561-6.347 C239.848,68.022,241.726,68.203,244.03,68.566z"/>
    <g>
      <path fill="#F69D9A" d="M47.006,236.445c0,1.516-0.46,2.877-1.381,4.084c-0.921,1.208-2.269,2.154-4.043,2.838 c-1.775,0.684-3.879,1.025-6.312,1.025c-2.917,0-5.324-0.468-7.22-1.402c-1.344-0.672-2.437-1.568-3.277-2.691 c-0.84-1.122-1.26-2.213-1.26-3.272c0-0.615,0.252-1.142,0.756-1.581c0.504-0.438,1.146-0.658,1.926-0.658 c0.631,0,1.166,0.172,1.603,0.514c0.437,0.342,0.81,0.849,1.119,1.521c0.376,0.798,0.783,1.464,1.22,1.999 c0.437,0.536,1.052,0.978,1.845,1.325c0.793,0.348,1.835,0.521,3.125,0.521c1.775,0,3.217-0.35,4.326-1.051 c1.109-0.7,1.664-1.574,1.664-2.623c0-0.831-0.299-1.507-0.897-2.025c-0.598-0.518-1.371-0.914-2.319-1.188 s-2.215-0.564-3.801-0.871c-2.125-0.422-3.902-0.915-5.334-1.479c-1.432-0.564-2.568-1.333-3.408-2.308 c-0.84-0.974-1.26-2.185-1.26-3.632c0-1.378,0.444-2.603,1.331-3.674c0.887-1.07,2.171-1.894,3.852-2.47 c1.681-0.575,3.657-0.862,5.929-0.862c1.815,0,3.385,0.19,4.709,0.572s2.423,0.889,3.297,1.521 c0.874,0.633,1.512,1.297,1.916,1.991c0.403,0.695,0.605,1.373,0.605,2.033c0,0.604-0.252,1.148-0.756,1.633 c-0.504,0.484-1.133,0.727-1.885,0.727c-0.686,0-1.207-0.146-1.563-0.437c-0.356-0.29-0.743-0.766-1.16-1.427 c-0.538-0.945-1.183-1.684-1.936-2.213c-0.753-0.53-1.963-0.795-3.63-0.795c-1.546,0-2.793,0.288-3.741,0.863 s-1.421,1.268-1.421,2.076c0,0.502,0.161,0.935,0.484,1.299c0.323,0.365,0.766,0.678,1.331,0.939 c0.564,0.263,1.136,0.468,1.714,0.615c0.578,0.148,1.533,0.365,2.864,0.65c1.667,0.33,3.176,0.694,4.527,1.094 c1.351,0.398,2.5,0.883,3.448,1.452c0.948,0.57,1.687,1.29,2.218,2.162C46.74,234.112,47.006,235.181,47.006,236.445z"/>
      <path fill="#F69D9A" d="M72.833,221.561v8.783l11.757-10.391c0.564-0.501,1.045-0.871,1.442-1.11 c0.396-0.239,0.924-0.358,1.583-0.358c0.86,0,1.556,0.213,2.087,0.641c0.531,0.427,0.796,0.948,0.796,1.563 c0,0.741-0.45,1.476-1.351,2.204l-7.28,5.846l8.389,10.186c0.591,0.706,1.035,1.324,1.331,1.854 c0.295,0.53,0.443,1.046,0.443,1.547c0,0.559-0.259,1.043-0.776,1.453s-1.22,0.615-2.107,0.615c-0.833,0-1.512-0.151-2.037-0.453 s-0.968-0.703-1.331-1.205c-0.363-0.501-0.686-0.957-0.968-1.367l-7.078-9.229l-4.9,3.982v5.178c0,1.049-0.282,1.826-0.847,2.333 c-0.564,0.507-1.291,0.761-2.178,0.761c-0.511,0-1.002-0.114-1.472-0.342c-0.471-0.229-0.834-0.536-1.089-0.924 c-0.188-0.318-0.303-0.688-0.343-1.11c-0.041-0.421-0.061-1.031-0.061-1.829v-18.627c0-1.025,0.265-1.795,0.796-2.308 c0.531-0.513,1.253-0.769,2.168-0.769c0.9,0,1.63,0.253,2.188,0.76C72.554,219.752,72.833,220.523,72.833,221.561z"/>
      <path fill="#F69D9A" d="M112.168,241.299v-19.738c0-1.025,0.275-1.795,0.827-2.308s1.264-0.769,2.138-0.769 c0.9,0,1.63,0.253,2.188,0.76c0.558,0.508,0.837,1.279,0.837,2.316v19.738c0,1.037-0.279,1.812-0.837,2.324 c-0.558,0.513-1.288,0.77-2.188,0.77c-0.861,0-1.57-0.26-2.127-0.778C112.447,243.097,112.168,242.324,112.168,241.299z"/>
      <path fill="#F69D9A" d="M147.373,221.525l11.515,14.766v-14.902c0-0.968,0.245-1.694,0.736-2.179 c0.491-0.483,1.152-0.726,1.986-0.726c0.86,0,1.539,0.242,2.037,0.726c0.498,0.484,0.746,1.211,0.746,2.179v19.705 c0,2.199-1.076,3.299-3.227,3.299c-0.538,0-1.021-0.066-1.452-0.197c-0.431-0.131-0.834-0.339-1.21-0.623 c-0.376-0.285-0.726-0.618-1.049-1s-0.646-0.771-0.968-1.171l-11.232-14.595v14.68c0,0.957-0.262,1.682-0.787,2.171 s-1.197,0.735-2.017,0.735c-0.847,0-1.526-0.248-2.037-0.744c-0.511-0.495-0.767-1.216-0.767-2.162v-19.328 c0-0.82,0.107-1.464,0.323-1.932c0.255-0.512,0.679-0.931,1.271-1.256c0.591-0.324,1.23-0.486,1.916-0.486 c0.538,0,0.999,0.074,1.381,0.222c0.383,0.148,0.719,0.348,1.008,0.599c0.289,0.25,0.585,0.575,0.888,0.974 C146.737,220.678,147.05,221.093,147.373,221.525z"/>
      <path fill="#F69D9A" d="M206.85,236.053c0,0.797-0.232,1.66-0.696,2.589s-1.193,1.84-2.188,2.734 c-0.994,0.895-2.266,1.621-3.811,2.179c-1.547,0.558-3.348,0.838-5.404,0.838c-1.561,0-2.979-0.126-4.256-0.377 c-1.277-0.25-2.437-0.641-3.479-1.17c-1.042-0.53-2-1.228-2.873-2.094c-0.78-0.786-1.445-1.666-1.997-2.641 c-0.552-0.974-0.965-2.014-1.24-3.119c-0.275-1.104-0.413-2.278-0.413-3.52c0-2.018,0.346-3.822,1.039-5.418 c0.691-1.595,1.684-2.959,2.974-4.093s2.804-1.997,4.538-2.589c1.734-0.593,3.582-0.889,5.545-0.889 c2.393,0,4.523,0.404,6.393,1.213c1.869,0.81,3.301,1.809,4.295,2.999c0.996,1.191,1.492,2.315,1.492,3.376 c0,0.58-0.241,1.094-0.725,1.537c-0.484,0.445-1.069,0.667-1.755,0.667c-0.767,0-1.341-0.153-1.725-0.462 c-0.383-0.307-0.81-0.837-1.28-1.589c-0.779-1.241-1.697-2.171-2.753-2.786s-2.356-0.922-3.901-0.922 c-2.461,0-4.42,0.792-5.879,2.375c-1.459,1.584-2.188,3.834-2.188,6.75c0,1.949,0.322,3.569,0.967,4.862 c0.646,1.294,1.561,2.259,2.743,2.897c1.183,0.638,2.567,0.957,4.154,0.957c1.721,0,3.177-0.362,4.366-1.086 c1.189-0.723,2.087-1.785,2.691-3.188c0.256-0.66,0.572-1.198,0.948-1.614s0.981-0.624,1.815-0.624 c0.712,0,1.324,0.211,1.834,0.633C206.594,234.901,206.85,235.426,206.85,236.053z"/>
      <path fill="#F69D9A" d="M245.725,241.128l-1.411-3.145h-12.019l-1.412,3.213c-0.551,1.254-1.021,2.1-1.411,2.538 s-1.028,0.658-1.916,0.658c-0.753,0-1.419-0.234-1.997-0.701s-0.867-0.997-0.867-1.59c0-0.342,0.068-0.694,0.203-1.059 c0.133-0.365,0.355-0.872,0.664-1.521l7.563-16.27c0.215-0.467,0.475-1.028,0.777-1.684c0.302-0.654,0.625-1.198,0.967-1.632 c0.344-0.433,0.794-0.783,1.352-1.051c0.559-0.268,1.247-0.401,2.067-0.401c0.833,0,1.528,0.134,2.087,0.401 c0.558,0.268,1.008,0.612,1.352,1.034c0.342,0.421,0.631,0.874,0.867,1.358c0.234,0.484,0.534,1.131,0.896,1.939l7.725,16.167 c0.604,1.23,0.906,2.125,0.906,2.684c0,0.58-0.285,1.113-0.856,1.598c-0.571,0.483-1.261,0.727-2.067,0.727 c-0.471,0-0.873-0.072-1.209-0.214c-0.337-0.143-0.619-0.336-0.848-0.581s-0.474-0.621-0.736-1.128 C246.139,241.963,245.914,241.516,245.725,241.128z M233.867,234.172h8.833l-4.456-10.339L233.867,234.172z"/>
      <path fill="#F69D9A" d="M279.111,233.25h-2.098v8.049c0,1.06-0.275,1.84-0.826,2.342c-0.552,0.501-1.271,0.752-2.158,0.752 c-0.955,0-1.693-0.263-2.219-0.787c-0.523-0.523-0.786-1.292-0.786-2.307v-19.277c0-1.094,0.289-1.886,0.867-2.375 c0.578-0.49,1.513-0.735,2.804-0.735h9.74c1.344,0,2.492,0.049,3.447,0.146s1.816,0.293,2.582,0.59 c0.928,0.33,1.748,0.803,2.461,1.418c0.711,0.615,1.252,1.33,1.623,2.145c0.369,0.815,0.555,1.678,0.555,2.59 c0,1.868-0.623,3.36-1.865,4.477c-1.244,1.117-3.131,1.909-5.658,2.376c1.063,0.479,2.078,1.186,3.045,2.119 c0.969,0.935,1.832,1.929,2.592,2.982s1.352,2.005,1.775,2.854c0.424,0.85,0.635,1.434,0.635,1.752 c0,0.331-0.125,0.658-0.373,0.982c-0.248,0.325-0.588,0.581-1.018,0.77c-0.432,0.188-0.928,0.282-1.492,0.282 c-0.674,0-1.238-0.135-1.695-0.402s-0.85-0.606-1.18-1.017c-0.328-0.41-0.775-1.014-1.34-1.812l-2.4-3.384 c-0.861-1.241-1.631-2.188-2.309-2.837c-0.68-0.649-1.369-1.094-2.068-1.333C281.055,233.369,280.174,233.25,279.111,233.25z M282.539,222.723h-5.525v6.887h5.365c1.438,0,2.648-0.105,3.629-0.316c0.98-0.21,1.73-0.569,2.248-1.076s0.777-1.205,0.777-2.094 c0-0.694-0.209-1.308-0.625-1.837c-0.418-0.53-0.996-0.926-1.734-1.188C285.975,222.848,284.596,222.723,282.539,222.723z"/>
      <path fill="#F69D9A" d="M335.063,222.824h-13.549v6.152h12.475c0.918,0,1.604,0.175,2.057,0.521 c0.451,0.348,0.678,0.807,0.678,1.376c0,0.57-0.223,1.034-0.668,1.393c-0.445,0.359-1.135,0.538-2.066,0.538h-12.475v7.127h14.014 c0.945,0,1.658,0.186,2.137,0.556c0.48,0.37,0.719,0.862,0.719,1.478c0,0.593-0.238,1.074-0.719,1.444 c-0.479,0.371-1.191,0.556-2.137,0.556h-16.342c-1.311,0-2.252-0.245-2.826-0.734c-0.572-0.49-0.859-1.282-0.859-2.376v-18.833 c0-0.729,0.127-1.324,0.385-1.786c0.256-0.461,0.658-0.797,1.205-1.008s1.244-0.316,2.096-0.316h15.877 c0.959,0,1.67,0.18,2.137,0.538c0.465,0.359,0.699,0.829,0.699,1.41c0,0.593-0.234,1.068-0.699,1.427 C336.732,222.646,336.021,222.824,335.063,222.824z"/>
    </g>
  </g>
  <g>
    <path fill="#9561A8" d="M168.715,125.674h18.475v27.817c0,2.8,1.169,4.198,3.508,4.198c2.305,0,3.459-1.398,3.459-4.198v-27.817 h18.479v27.469c0,6.392-2.125,11.784-6.374,16.18c-4.25,4.399-9.451,6.597-15.612,6.597c-7.015,0-12.663-2.552-16.946-7.659 c-3.328-3.983-4.988-9.516-4.988-16.599V125.674z"/>
    <path fill="#9561A8" d="M223.033,195.83v-16.058c2.504,1.054,4.692,1.581,6.57,1.581c5.995,0,9.881-3.376,11.658-10.129 c-3.227,1.911-6.39,2.867-9.485,2.867c-4.579,0-8.349-1.703-11.313-5.113c-2.965-3.407-4.445-7.748-4.445-13.018v-30.977h18.477 v26.48c0,2.934,1.217,4.396,3.656,4.396c2.339,0,3.508-1.612,3.508-4.839v-26.037h18.476v43.969c0,8.2-2.305,14.822-6.915,19.862 c-5.5,5.992-12.152,8.99-19.959,8.99C229.835,197.806,226.425,197.146,223.033,195.83z"/>
    <path fill="#9561A8" d="M299.252,126.674v19.468c-2.601,0-4.387,0.484-5.36,1.455c-0.971,0.971-1.588,2.892-1.851,5.758 c-0.857,9.516-4.545,16.234-11.069,20.154c-3.455,2.043-8.364,3.065-14.72,3.065h-2.57V157.01h0.839 c2.964,0,5.083-0.617,6.35-1.854s2-3.4,2.198-6.496c0.263-5.039,0.732-8.578,1.407-10.62c0.678-2.042,2.052-4.069,4.128-6.078 c3.62-3.523,8.645-5.288,15.065-5.288H299.252z"/>
    <path fill="#9561A8" d="M338.44,126.674v19.468c-2.604,0-4.39,0.484-5.36,1.455s-1.591,2.892-1.854,5.758 c-0.857,9.516-4.545,16.234-11.066,20.154c-3.458,2.043-8.364,3.065-14.724,3.065h-2.567V157.01h0.84 c2.965,0,5.08-0.617,6.347-1.854c1.271-1.236,2.003-3.4,2.201-6.496c0.263-5.039,0.732-8.578,1.407-10.62 c0.675-2.042,2.049-4.069,4.124-6.078c3.624-3.523,8.646-5.288,15.069-5.288H338.44z"/>
    <g>
      <path fill="#9561A8" d="M51.116,231.318c0-1.39,0.493-2.58,1.479-3.572c0.985-0.99,2.173-1.486,3.563-1.486 c1.401,0,2.598,0.493,3.589,1.479s1.487,2.179,1.487,3.58s-0.496,2.595-1.487,3.58c-0.991,0.986-2.182,1.479-3.572,1.479 c-1.401,0-2.595-0.492-3.58-1.479C51.608,233.913,51.116,232.72,51.116,231.318z"/>
      <path fill="#9561A8" d="M96.238,231.318c0-1.39,0.493-2.58,1.478-3.572c0.985-0.99,2.173-1.486,3.563-1.486 c1.401,0,2.598,0.493,3.589,1.479s1.487,2.179,1.487,3.58s-0.496,2.595-1.487,3.58c-0.991,0.986-2.182,1.479-3.572,1.479 c-1.401,0-2.595-0.492-3.581-1.479C96.731,233.913,96.238,232.72,96.238,231.318z"/>
      <path fill="#9561A8" d="M123.88,231.318c0-1.39,0.493-2.58,1.479-3.572c0.985-0.99,2.173-1.486,3.563-1.486 c1.401,0,2.598,0.493,3.589,1.479s1.487,2.179,1.487,3.58s-0.496,2.595-1.487,3.58c-0.991,0.986-2.182,1.479-3.572,1.479 c-1.401,0-2.595-0.492-3.58-1.479C124.373,233.913,123.88,232.72,123.88,231.318z"/>
      <path fill="#9561A8" d="M211.262,231.318c0-1.39,0.492-2.58,1.479-3.572c0.984-0.99,2.172-1.486,3.563-1.486 c1.401,0,2.598,0.493,3.589,1.479s1.487,2.179,1.487,3.58s-0.496,2.595-1.487,3.58c-0.991,0.986-2.183,1.479-3.571,1.479 c-1.402,0-2.596-0.492-3.58-1.479C211.754,233.913,211.262,232.72,211.262,231.318z"/>
      <path fill="#9561A8" d="M255.377,231.318c0-1.39,0.492-2.58,1.479-3.572c0.984-0.99,2.173-1.486,3.563-1.486 c1.402,0,2.598,0.493,3.59,1.479c0.99,0.985,1.486,2.179,1.486,3.58s-0.496,2.595-1.486,3.58 c-0.992,0.986-2.183,1.479-3.572,1.479c-1.401,0-2.596-0.492-3.58-1.479C255.869,233.913,255.377,232.72,255.377,231.318z"/>
      <path fill="#9561A8" d="M299.797,231.318c0-1.39,0.492-2.58,1.479-3.572c0.984-0.99,2.172-1.486,3.563-1.486 c1.402,0,2.598,0.493,3.59,1.479c0.99,0.985,1.486,2.179,1.486,3.58s-0.496,2.595-1.486,3.58 c-0.992,0.986-2.182,1.479-3.572,1.479c-1.402,0-2.596-0.492-3.58-1.479C300.289,233.913,299.797,232.72,299.797,231.318z"/>
    </g>
    <g>
      <path fill="#9561A8" d="M143.396,153.957v16.959c-2.668,0.989-5.22,1.484-7.656,1.484c-5.962,0-11.008-2.258-15.142-6.775 c-4.133-4.516-6.2-10.037-6.2-16.563c0-7.051,2.485-13.002,7.458-17.848c4.973-4.845,11.085-7.268,18.329-7.268 c3.855,0,7.543,0.772,11.066,2.325c3.526,1.549,6.292,3.626,8.3,6.229c3.361,4.317,5.04,10.58,5.04,18.786v16.217 c0,8.802-2.494,15.947-7.485,21.435c-4.988,5.487-11.484,8.23-19.489,8.23c-2.439,0-5.517-0.608-9.238-1.827v-16.812 c2.402,1.319,4.842,1.979,7.312,1.979c3.324,0,5.895-1.097,7.705-3.288c1.81-2.193,2.717-5.33,2.717-9.418v-18.542 c0-5.175-2.091-7.763-6.273-7.763c-1.776,0-3.333,0.684-4.667,2.053c-1.334,1.366-2.003,2.942-2.003,4.721 c0,1.879,0.635,3.445,1.902,4.698c1.27,1.253,2.842,1.879,4.72,1.879C141.042,154.849,142.242,154.549,143.396,153.957z"/>
      <path fill="#9561A8" d="M125.301,176.797v17.46c1.188,0.405,2.305,0.738,3.362,1.138l0.09-16.705 C127.625,178.222,126.414,177.432,125.301,176.797z"/>
    </g>
  </g>
  <path fill="#9561A8" d="M34.381,52.243c0,0.844-0.217,1.603-0.652,2.275c-0.435,0.673-1.071,1.2-1.909,1.581 s-1.832,0.571-2.98,0.571c-1.377,0-2.514-0.26-3.409-0.781c-0.635-0.374-1.15-0.874-1.547-1.5c-0.396-0.625-0.595-1.233-0.595-1.823 c0-0.343,0.119-0.636,0.357-0.881c0.238-0.244,0.541-0.367,0.909-0.367c0.298,0,0.551,0.096,0.757,0.286 c0.207,0.19,0.382,0.473,0.529,0.847c0.177,0.444,0.37,0.816,0.576,1.114c0.207,0.299,0.497,0.544,0.872,0.738 c0.374,0.193,0.866,0.29,1.476,0.29c0.838,0,1.519-0.195,2.042-0.585c0.523-0.39,0.786-0.877,0.786-1.461 c0-0.463-0.142-0.839-0.424-1.128c-0.283-0.289-0.647-0.509-1.095-0.662c-0.447-0.152-1.046-0.314-1.794-0.485 c-1.003-0.235-1.843-0.51-2.519-0.824c-0.676-0.314-1.212-0.743-1.609-1.286c-0.396-0.542-0.595-1.217-0.595-2.023 c0-0.768,0.209-1.45,0.628-2.047s1.025-1.055,1.819-1.376c0.793-0.32,1.727-0.48,2.799-0.48c0.857,0,1.598,0.106,2.223,0.319 c0.625,0.212,1.144,0.495,1.557,0.847c0.412,0.353,0.714,0.722,0.904,1.109s0.286,0.765,0.286,1.133c0,0.337-0.119,0.64-0.357,0.91 c-0.238,0.27-0.535,0.405-0.891,0.405c-0.323,0-0.569-0.081-0.738-0.243c-0.168-0.162-0.351-0.427-0.547-0.795 c-0.254-0.527-0.559-0.938-0.914-1.233c-0.355-0.295-0.927-0.443-1.714-0.443c-0.73,0-1.319,0.16-1.766,0.481 c-0.448,0.32-0.671,0.706-0.671,1.157c0,0.279,0.076,0.521,0.229,0.724s0.362,0.378,0.628,0.523 c0.267,0.146,0.536,0.261,0.809,0.343c0.273,0.083,0.724,0.204,1.353,0.362c0.787,0.184,1.5,0.387,2.137,0.609 c0.638,0.222,1.181,0.492,1.628,0.809c0.447,0.317,0.796,0.719,1.047,1.205C34.255,50.943,34.381,51.538,34.381,52.243z"/>
  <path fill="#9561A8" d="M37.914,44.892c-0.362,0-0.671-0.111-0.929-0.333c-0.257-0.222-0.386-0.537-0.386-0.943 c0-0.368,0.132-0.671,0.396-0.909c0.263-0.238,0.569-0.357,0.919-0.357c0.336,0,0.634,0.108,0.895,0.323 c0.26,0.216,0.391,0.53,0.391,0.943c0,0.4-0.127,0.712-0.381,0.938C38.564,44.779,38.262,44.892,37.914,44.892z M39.199,47.577 v7.512c0,0.521-0.124,0.914-0.371,1.181c-0.248,0.267-0.562,0.4-0.943,0.4s-0.69-0.137-0.928-0.41 c-0.238-0.273-0.357-0.663-0.357-1.171v-7.436c0-0.514,0.119-0.901,0.357-1.162c0.238-0.26,0.547-0.391,0.928-0.391 s0.695,0.13,0.943,0.391C39.075,46.752,39.199,47.114,39.199,47.577z"/>
  <path fill="#9561A8" d="M50.53,51.576v3.457c0,0.546-0.124,0.955-0.372,1.228s-0.575,0.41-0.981,0.41 c-0.394,0-0.712-0.137-0.957-0.41c-0.245-0.273-0.367-0.682-0.367-1.228v-4.142c0-0.654-0.022-1.162-0.066-1.523 c-0.045-0.362-0.166-0.659-0.362-0.89c-0.197-0.232-0.508-0.348-0.933-0.348c-0.851,0-1.411,0.292-1.681,0.876 c-0.27,0.584-0.405,1.422-0.405,2.514v3.514c0,0.54-0.122,0.947-0.367,1.223c-0.244,0.276-0.566,0.415-0.966,0.415 c-0.394,0-0.716-0.138-0.966-0.415c-0.251-0.276-0.376-0.684-0.376-1.223v-7.437c0-0.489,0.112-0.86,0.338-1.114 c0.225-0.253,0.522-0.381,0.89-0.381c0.355,0,0.652,0.119,0.89,0.357c0.238,0.238,0.357,0.566,0.357,0.985v0.248 c0.45-0.54,0.933-0.936,1.447-1.19c0.514-0.254,1.085-0.381,1.714-0.381c0.653,0,1.215,0.13,1.685,0.39s0.857,0.654,1.162,1.181 c0.438-0.533,0.908-0.928,1.409-1.186c0.501-0.257,1.057-0.385,1.666-0.385c0.711,0,1.324,0.14,1.838,0.419s0.898,0.679,1.152,1.199 c0.222,0.47,0.333,1.209,0.333,2.219v5.075c0,0.546-0.124,0.955-0.371,1.228c-0.248,0.273-0.575,0.41-0.981,0.41 c-0.394,0-0.716-0.138-0.966-0.415c-0.251-0.276-0.376-0.684-0.376-1.223v-4.371c0-0.559-0.024-1.006-0.072-1.342 c-0.047-0.336-0.176-0.619-0.385-0.848c-0.21-0.229-0.527-0.343-0.952-0.343c-0.343,0-0.668,0.102-0.976,0.305 c-0.308,0.203-0.547,0.476-0.719,0.819C50.625,49.691,50.53,50.465,50.53,51.576z"/>
  <path fill="#9561A8" d="M61.537,47.558v0.314c0.488-0.603,0.996-1.046,1.523-1.329c0.526-0.282,1.123-0.423,1.79-0.423 c0.8,0,1.536,0.206,2.209,0.619c0.672,0.413,1.204,1.016,1.595,1.809c0.39,0.793,0.585,1.733,0.585,2.818 c0,0.8-0.113,1.535-0.338,2.204c-0.226,0.67-0.535,1.231-0.928,1.686c-0.394,0.454-0.859,0.803-1.395,1.047 c-0.537,0.244-1.113,0.367-1.728,0.367c-0.743,0-1.367-0.149-1.871-0.448c-0.505-0.298-0.985-0.736-1.442-1.314v3.904 c0,1.143-0.416,1.714-1.248,1.714c-0.489,0-0.813-0.147-0.971-0.443c-0.159-0.295-0.238-0.725-0.238-1.29V47.577 c0-0.495,0.108-0.865,0.324-1.109c0.215-0.244,0.511-0.367,0.885-0.367c0.368,0,0.668,0.125,0.9,0.376 C61.42,46.728,61.537,47.088,61.537,47.558z M66.63,51.338c0-0.686-0.104-1.274-0.314-1.767c-0.209-0.492-0.5-0.87-0.871-1.133 c-0.371-0.264-0.782-0.396-1.233-0.396c-0.717,0-1.322,0.283-1.814,0.848c-0.492,0.565-0.738,1.396-0.738,2.495 c0,1.035,0.244,1.839,0.733,2.414c0.489,0.575,1.095,0.862,1.819,0.862c0.432,0,0.832-0.125,1.2-0.376 c0.368-0.251,0.663-0.627,0.886-1.128C66.519,52.655,66.63,52.049,66.63,51.338z"/>
  <path fill="#9561A8" d="M71.325,55.089V43.816c0-0.52,0.116-0.914,0.347-1.181c0.232-0.267,0.544-0.399,0.938-0.399 s0.711,0.131,0.952,0.395c0.241,0.263,0.362,0.659,0.362,1.185v11.273c0,0.527-0.122,0.922-0.367,1.186 c-0.244,0.264-0.56,0.396-0.947,0.396c-0.381,0-0.69-0.137-0.928-0.41C71.443,55.988,71.325,55.598,71.325,55.089z"/>
  <path fill="#9561A8" d="M83.864,52.024H78.78c0.006,0.59,0.125,1.111,0.357,1.562c0.231,0.451,0.54,0.79,0.923,1.019 c0.384,0.229,0.808,0.343,1.271,0.343c0.311,0,0.595-0.037,0.852-0.109c0.257-0.073,0.506-0.188,0.748-0.343 c0.241-0.156,0.463-0.322,0.666-0.5s0.467-0.419,0.791-0.724c0.133-0.114,0.324-0.171,0.571-0.171c0.267,0,0.482,0.073,0.647,0.219 s0.248,0.352,0.248,0.619c0,0.235-0.092,0.509-0.276,0.824c-0.184,0.314-0.461,0.616-0.833,0.904 c-0.371,0.289-0.838,0.528-1.399,0.719c-0.562,0.19-1.208,0.286-1.938,0.286c-1.67,0-2.968-0.477-3.895-1.429 s-1.39-2.244-1.39-3.875c0-0.768,0.114-1.48,0.343-2.138c0.229-0.657,0.562-1.22,1-1.69c0.438-0.47,0.978-0.83,1.619-1.081 c0.641-0.251,1.352-0.376,2.133-0.376c1.015,0,1.887,0.214,2.613,0.643c0.727,0.428,1.271,0.982,1.633,1.661 c0.362,0.68,0.543,1.371,0.543,2.076c0,0.654-0.188,1.077-0.562,1.271C85.07,51.927,84.543,52.024,83.864,52.024z M78.78,50.548 h4.713c-0.063-0.889-0.303-1.554-0.719-1.995c-0.416-0.441-0.963-0.662-1.643-0.662c-0.647,0-1.179,0.224-1.595,0.671 C79.121,49.01,78.868,49.672,78.78,50.548z"/>
  <path fill="#F69D9A" d="M89.281,49.386c0-0.774,0.275-1.438,0.824-1.99c0.549-0.552,1.211-0.828,1.985-0.828 c0.781,0,1.447,0.274,2,0.824c0.552,0.549,0.828,1.214,0.828,1.995s-0.276,1.446-0.828,1.995c-0.552,0.549-1.216,0.824-1.99,0.824 c-0.78,0-1.445-0.274-1.995-0.824C89.556,50.832,89.281,50.167,89.281,49.386z"/>
  <path fill="#9561A8" d="M104.819,56.432h-4.266c-0.616,0-1.055-0.138-1.319-0.414c-0.263-0.276-0.395-0.716-0.395-1.319V44.207 c0-0.616,0.135-1.059,0.405-1.328c0.27-0.27,0.706-0.405,1.309-0.405h4.522c0.667,0,1.244,0.042,1.733,0.124 c0.488,0.083,0.926,0.242,1.313,0.477c0.33,0.197,0.622,0.446,0.876,0.747c0.254,0.302,0.448,0.635,0.581,1 c0.133,0.365,0.2,0.75,0.2,1.157c0,1.396-0.699,2.418-2.095,3.066c1.834,0.584,2.751,1.72,2.751,3.409c0,0.781-0.2,1.484-0.6,2.109 c-0.399,0.625-0.939,1.087-1.618,1.386c-0.426,0.178-0.914,0.303-1.467,0.376C106.2,56.396,105.555,56.432,104.819,56.432z M101.667,44.597v3.608h2.59c0.704,0,1.249-0.066,1.633-0.2c0.384-0.133,0.677-0.387,0.881-0.762 c0.158-0.267,0.238-0.564,0.238-0.895c0-0.705-0.251-1.173-0.752-1.405c-0.501-0.231-1.266-0.347-2.294-0.347H101.667z M104.609,50.234h-2.942v4.075h3.037c1.911,0,2.866-0.689,2.866-2.066c0-0.705-0.248-1.215-0.743-1.533 C106.333,50.393,105.593,50.234,104.609,50.234z"/>
  <path fill="#9561A8" d="M119.272,55.204c-0.628,0.489-1.236,0.855-1.823,1.1c-0.587,0.244-1.246,0.367-1.976,0.367 c-0.667,0-1.252-0.132-1.757-0.396c-0.504-0.263-0.894-0.62-1.166-1.071c-0.273-0.45-0.41-0.939-0.41-1.466 c0-0.711,0.225-1.317,0.676-1.819c0.45-0.501,1.069-0.838,1.856-1.009c0.165-0.038,0.574-0.124,1.229-0.257 c0.653-0.134,1.214-0.256,1.68-0.367c0.467-0.111,0.973-0.246,1.519-0.405c-0.032-0.686-0.17-1.188-0.415-1.509 c-0.244-0.32-0.75-0.481-1.519-0.481c-0.66,0-1.157,0.092-1.49,0.276c-0.333,0.184-0.619,0.46-0.857,0.828 c-0.238,0.369-0.406,0.611-0.504,0.729c-0.099,0.118-0.31,0.176-0.633,0.176c-0.292,0-0.544-0.094-0.757-0.281 c-0.213-0.188-0.319-0.427-0.319-0.719c0-0.457,0.162-0.901,0.486-1.333s0.829-0.787,1.514-1.066s1.539-0.419,2.561-0.419 c1.143,0,2.041,0.135,2.695,0.404c0.653,0.27,1.115,0.697,1.385,1.281c0.27,0.584,0.405,1.358,0.405,2.323 c0,0.609-0.002,1.127-0.005,1.552c-0.003,0.425-0.008,0.898-0.015,1.418c0,0.489,0.081,0.998,0.243,1.528 c0.162,0.53,0.243,0.871,0.243,1.023c0,0.267-0.125,0.509-0.376,0.729c-0.251,0.219-0.535,0.329-0.852,0.329 c-0.267,0-0.53-0.125-0.791-0.376C119.84,56.043,119.564,55.68,119.272,55.204z M119.101,51.443 c-0.381,0.14-0.935,0.287-1.662,0.443c-0.727,0.155-1.23,0.27-1.509,0.343c-0.279,0.073-0.546,0.216-0.8,0.428 c-0.254,0.213-0.381,0.51-0.381,0.891c0,0.394,0.149,0.728,0.447,1.004c0.298,0.276,0.689,0.414,1.171,0.414 c0.514,0,0.989-0.113,1.423-0.338c0.435-0.226,0.754-0.516,0.957-0.872c0.235-0.393,0.353-1.041,0.353-1.942V51.443z"/>
  <path fill="#9561A8" d="M132.66,53.271c0,0.717-0.175,1.332-0.523,1.842c-0.35,0.511-0.865,0.898-1.547,1.162 c-0.683,0.264-1.513,0.396-2.49,0.396c-0.934,0-1.733-0.143-2.399-0.429c-0.667-0.286-1.159-0.643-1.476-1.071 c-0.317-0.428-0.476-0.858-0.476-1.29c0-0.286,0.102-0.53,0.305-0.733c0.203-0.203,0.46-0.305,0.771-0.305 c0.272,0,0.482,0.067,0.628,0.2s0.286,0.321,0.419,0.562c0.267,0.464,0.586,0.81,0.957,1.038c0.372,0.229,0.877,0.343,1.519,0.343 c0.521,0,0.948-0.116,1.281-0.348c0.333-0.231,0.5-0.497,0.5-0.795c0-0.457-0.173-0.79-0.519-1c-0.346-0.209-0.916-0.409-1.709-0.6 c-0.895-0.222-1.624-0.456-2.185-0.7c-0.562-0.245-1.011-0.567-1.347-0.966c-0.337-0.4-0.505-0.892-0.505-1.476 c0-0.521,0.155-1.012,0.467-1.476c0.311-0.463,0.77-0.833,1.375-1.109c0.606-0.276,1.338-0.415,2.195-0.415 c0.673,0,1.277,0.07,1.814,0.21c0.536,0.14,0.984,0.327,1.342,0.562c0.359,0.235,0.632,0.495,0.819,0.781 c0.188,0.286,0.281,0.565,0.281,0.838c0,0.298-0.1,0.542-0.3,0.733c-0.2,0.19-0.484,0.286-0.852,0.286 c-0.267,0-0.494-0.076-0.681-0.229c-0.188-0.152-0.402-0.381-0.643-0.686c-0.197-0.254-0.428-0.457-0.695-0.609 s-0.628-0.229-1.085-0.229c-0.47,0-0.86,0.1-1.171,0.3c-0.312,0.2-0.467,0.449-0.467,0.747c0,0.273,0.114,0.497,0.343,0.671 c0.229,0.175,0.536,0.319,0.924,0.433c0.387,0.114,0.92,0.254,1.6,0.419c0.806,0.197,1.464,0.432,1.976,0.705 c0.511,0.273,0.898,0.595,1.162,0.966C132.528,52.371,132.66,52.795,132.66,53.271z"/>
  <path fill="#9561A8" d="M136.173,44.892c-0.362,0-0.671-0.111-0.929-0.333c-0.257-0.222-0.386-0.537-0.386-0.943 c0-0.368,0.132-0.671,0.396-0.909c0.263-0.238,0.569-0.357,0.919-0.357c0.336,0,0.634,0.108,0.895,0.323 c0.26,0.216,0.391,0.53,0.391,0.943c0,0.4-0.127,0.712-0.381,0.938C136.824,44.779,136.522,44.892,136.173,44.892z M137.458,47.577 v7.512c0,0.521-0.124,0.914-0.371,1.181c-0.248,0.267-0.562,0.4-0.943,0.4s-0.69-0.137-0.928-0.41 c-0.238-0.273-0.357-0.663-0.357-1.171v-7.436c0-0.514,0.119-0.901,0.357-1.162c0.238-0.26,0.547-0.391,0.928-0.391 s0.695,0.13,0.943,0.391C137.334,46.752,137.458,47.114,137.458,47.577z"/>
  <path fill="#9561A8" d="M149.465,53.452c0,0.324-0.097,0.67-0.291,1.038c-0.193,0.368-0.489,0.719-0.885,1.052 c-0.397,0.333-0.897,0.602-1.5,0.804c-0.603,0.203-1.282,0.305-2.037,0.305c-1.606,0-2.86-0.468-3.761-1.404 c-0.901-0.936-1.352-2.191-1.352-3.766c0-1.066,0.206-2.009,0.619-2.828c0.412-0.818,1.009-1.452,1.79-1.899 c0.78-0.447,1.714-0.671,2.799-0.671c0.673,0,1.291,0.098,1.852,0.295c0.562,0.197,1.038,0.451,1.428,0.762 c0.391,0.311,0.689,0.643,0.895,0.995c0.207,0.352,0.31,0.681,0.31,0.985c0,0.311-0.116,0.575-0.348,0.79 c-0.231,0.216-0.513,0.324-0.842,0.324c-0.216,0-0.396-0.056-0.538-0.167c-0.143-0.111-0.303-0.29-0.481-0.538 c-0.317-0.482-0.649-0.844-0.995-1.085c-0.346-0.241-0.786-0.362-1.319-0.362c-0.768,0-1.387,0.3-1.856,0.9 c-0.47,0.6-0.705,1.42-0.705,2.461c0,0.489,0.06,0.938,0.181,1.347c0.12,0.41,0.295,0.759,0.523,1.047 c0.229,0.289,0.505,0.508,0.828,0.657c0.324,0.149,0.679,0.224,1.066,0.224c0.521,0,0.967-0.121,1.338-0.362 c0.372-0.241,0.7-0.609,0.985-1.104c0.159-0.292,0.33-0.521,0.515-0.686c0.184-0.165,0.409-0.248,0.676-0.248 c0.317,0,0.581,0.121,0.79,0.362C149.361,52.922,149.465,53.179,149.465,53.452z"/>
  <path fill="#F69D9A" d="M152.816,49.386c0-0.774,0.275-1.438,0.824-1.99c0.549-0.552,1.211-0.828,1.985-0.828 c0.781,0,1.447,0.274,2,0.824c0.552,0.549,0.828,1.214,0.828,1.995s-0.276,1.446-0.828,1.995c-0.552,0.549-1.216,0.824-1.99,0.824 c-0.78,0-1.445-0.274-1.995-0.824C153.091,50.832,152.816,50.167,152.816,49.386z"/>
  <path fill="#9561A8" d="M171.591,44.654h-6.37v3.428h5.865c0.432,0,0.754,0.097,0.967,0.291c0.212,0.194,0.319,0.449,0.319,0.767 s-0.105,0.576-0.314,0.776c-0.21,0.2-0.533,0.3-0.972,0.3h-5.865v3.971h6.589c0.444,0,0.779,0.103,1.005,0.31 c0.225,0.206,0.338,0.48,0.338,0.823c0,0.331-0.113,0.599-0.338,0.805c-0.226,0.207-0.561,0.31-1.005,0.31h-7.684 c-0.616,0-1.059-0.136-1.328-0.409c-0.27-0.273-0.405-0.714-0.405-1.324V44.207c0-0.406,0.06-0.738,0.181-0.995 c0.12-0.257,0.309-0.444,0.566-0.562c0.257-0.118,0.585-0.176,0.985-0.176h7.465c0.451,0,0.786,0.1,1.004,0.3 c0.219,0.2,0.329,0.462,0.329,0.786c0,0.33-0.109,0.595-0.329,0.795C172.377,44.554,172.042,44.654,171.591,44.654z"/>
  <path fill="#9561A8" d="M175.009,46.33h0.619v-0.78c0-0.813,0.103-1.458,0.31-1.938c0.206-0.479,0.555-0.828,1.047-1.047 c0.492-0.219,1.167-0.328,2.023-0.328c1.517,0,2.276,0.371,2.276,1.114c0,0.241-0.079,0.448-0.237,0.619 c-0.16,0.172-0.347,0.257-0.563,0.257c-0.102,0-0.276-0.019-0.524-0.057c-0.247-0.038-0.457-0.057-0.628-0.057 c-0.47,0-0.771,0.138-0.905,0.414c-0.133,0.276-0.2,0.671-0.2,1.186v0.619h0.638c0.99,0,1.485,0.299,1.485,0.896 c0,0.425-0.132,0.695-0.395,0.809c-0.264,0.114-0.627,0.171-1.09,0.171h-0.638v6.884c0,0.515-0.123,0.906-0.367,1.176 c-0.245,0.27-0.561,0.405-0.948,0.405c-0.368,0-0.674-0.135-0.918-0.405c-0.245-0.27-0.367-0.662-0.367-1.176v-6.884h-0.714 c-0.388,0-0.686-0.087-0.896-0.262c-0.209-0.175-0.314-0.401-0.314-0.681C173.705,46.641,174.14,46.33,175.009,46.33z"/>
  <path fill="#9561A8" d="M182.227,46.33h0.619v-0.78c0-0.813,0.104-1.458,0.31-1.938c0.206-0.479,0.556-0.828,1.048-1.047 c0.491-0.219,1.166-0.328,2.023-0.328c1.516,0,2.275,0.371,2.275,1.114c0,0.241-0.08,0.448-0.238,0.619 c-0.159,0.172-0.346,0.257-0.563,0.257c-0.102,0-0.275-0.019-0.523-0.057s-0.457-0.057-0.629-0.057 c-0.469,0-0.771,0.138-0.904,0.414c-0.133,0.276-0.199,0.671-0.199,1.186v0.619h0.638c0.99,0,1.485,0.299,1.485,0.896 c0,0.425-0.132,0.695-0.395,0.809c-0.264,0.114-0.627,0.171-1.091,0.171h-0.638v6.884c0,0.515-0.123,0.906-0.367,1.176 c-0.244,0.27-0.561,0.405-0.947,0.405c-0.368,0-0.674-0.135-0.918-0.405c-0.245-0.27-0.367-0.662-0.367-1.176v-6.884h-0.715 c-0.387,0-0.686-0.087-0.895-0.262c-0.209-0.175-0.314-0.401-0.314-0.681C180.922,46.641,181.357,46.33,182.227,46.33z"/>
  <path fill="#9561A8" d="M195.928,52.024h-5.084c0.006,0.59,0.125,1.111,0.357,1.562c0.231,0.451,0.539,0.79,0.924,1.019 c0.384,0.229,0.807,0.343,1.271,0.343c0.311,0,0.594-0.037,0.852-0.109c0.257-0.073,0.506-0.188,0.748-0.343 c0.24-0.156,0.463-0.322,0.666-0.5s0.467-0.419,0.79-0.724c0.134-0.114,0.323-0.171,0.571-0.171c0.267,0,0.482,0.073,0.647,0.219 s0.247,0.352,0.247,0.619c0,0.235-0.092,0.509-0.275,0.824c-0.185,0.314-0.462,0.616-0.834,0.904 c-0.371,0.289-0.838,0.528-1.398,0.719c-0.563,0.19-1.209,0.286-1.938,0.286c-1.67,0-2.969-0.477-3.895-1.429 c-0.928-0.952-1.391-2.244-1.391-3.875c0-0.768,0.114-1.48,0.343-2.138c0.229-0.657,0.562-1.22,0.999-1.69 c0.439-0.47,0.979-0.83,1.619-1.081c0.641-0.251,1.352-0.376,2.133-0.376c1.016,0,1.887,0.214,2.613,0.643 c0.728,0.428,1.271,0.982,1.633,1.661c0.363,0.68,0.543,1.371,0.543,2.076c0,0.654-0.188,1.077-0.561,1.271 C197.135,51.927,196.607,52.024,195.928,52.024z M190.844,50.548h4.713c-0.063-0.889-0.303-1.554-0.719-1.995 c-0.416-0.441-0.963-0.662-1.643-0.662c-0.646,0-1.179,0.224-1.594,0.671C191.186,49.01,190.933,49.672,190.844,50.548z"/>
  <path fill="#9561A8" d="M209.582,53.452c0,0.324-0.096,0.67-0.29,1.038c-0.193,0.368-0.489,0.719-0.886,1.052 c-0.396,0.333-0.896,0.602-1.5,0.804c-0.603,0.203-1.281,0.305-2.037,0.305c-1.605,0-2.859-0.468-3.761-1.404 c-0.901-0.936-1.353-2.191-1.353-3.766c0-1.066,0.207-2.009,0.619-2.828c0.412-0.818,1.01-1.452,1.791-1.899 c0.779-0.447,1.713-0.671,2.799-0.671c0.672,0,1.29,0.098,1.852,0.295c0.563,0.197,1.038,0.451,1.428,0.762 c0.391,0.311,0.689,0.643,0.896,0.995c0.206,0.352,0.31,0.681,0.31,0.985c0,0.311-0.115,0.575-0.348,0.79 c-0.231,0.216-0.513,0.324-0.842,0.324c-0.217,0-0.396-0.056-0.539-0.167c-0.143-0.111-0.303-0.29-0.48-0.538 c-0.317-0.482-0.648-0.844-0.995-1.085c-0.346-0.241-0.786-0.362-1.319-0.362c-0.768,0-1.387,0.3-1.855,0.9 c-0.471,0.6-0.705,1.42-0.705,2.461c0,0.489,0.061,0.938,0.182,1.347c0.119,0.41,0.295,0.759,0.523,1.047 c0.229,0.289,0.504,0.508,0.828,0.657c0.324,0.149,0.679,0.224,1.066,0.224c0.52,0,0.967-0.121,1.338-0.362s0.699-0.609,0.984-1.104 c0.159-0.292,0.33-0.521,0.516-0.686c0.184-0.165,0.408-0.248,0.676-0.248c0.316,0,0.58,0.121,0.789,0.362 C209.479,52.922,209.582,53.179,209.582,53.452z"/>
  <path fill="#9561A8" d="M211.992,46.33h0.285v-1.562c0-0.419,0.012-0.747,0.033-0.985c0.022-0.238,0.084-0.442,0.186-0.614 c0.102-0.177,0.248-0.322,0.438-0.433c0.191-0.111,0.404-0.167,0.639-0.167c0.33,0,0.629,0.124,0.895,0.371 c0.178,0.166,0.291,0.367,0.338,0.605c0.049,0.238,0.072,0.576,0.072,1.014v1.771h0.951c0.369,0,0.65,0.087,0.844,0.262 c0.193,0.174,0.29,0.398,0.29,0.671c0,0.349-0.138,0.593-0.414,0.733s-0.671,0.209-1.186,0.209h-0.485v4.78 c0,0.406,0.014,0.719,0.043,0.938c0.028,0.219,0.104,0.396,0.229,0.533c0.123,0.136,0.324,0.205,0.604,0.205 c0.152,0,0.359-0.027,0.619-0.081c0.261-0.054,0.464-0.081,0.609-0.081c0.21,0,0.398,0.084,0.566,0.252 c0.169,0.168,0.253,0.376,0.253,0.624c0,0.419-0.229,0.739-0.686,0.961S216,56.67,215.143,56.67c-0.813,0-1.428-0.137-1.846-0.41 c-0.42-0.273-0.694-0.65-0.824-1.133c-0.131-0.482-0.195-1.126-0.195-1.933v-4.989h-0.343c-0.374,0-0.66-0.089-0.856-0.267 c-0.197-0.178-0.295-0.403-0.295-0.676s0.103-0.497,0.309-0.671C211.299,46.417,211.598,46.33,211.992,46.33z"/>
  <path fill="#9561A8" d="M220.066,44.892c-0.361,0-0.672-0.111-0.929-0.333s-0.386-0.537-0.386-0.943 c0-0.368,0.132-0.671,0.396-0.909c0.263-0.238,0.569-0.357,0.919-0.357c0.336,0,0.635,0.108,0.895,0.323 c0.26,0.216,0.391,0.53,0.391,0.943c0,0.4-0.127,0.712-0.381,0.938C220.717,44.779,220.415,44.892,220.066,44.892z M221.352,47.577 v7.512c0,0.521-0.123,0.914-0.371,1.181s-0.563,0.4-0.943,0.4s-0.689-0.137-0.928-0.41s-0.357-0.663-0.357-1.171v-7.436 c0-0.514,0.119-0.901,0.357-1.162s0.547-0.391,0.928-0.391s0.695,0.13,0.943,0.391S221.352,47.114,221.352,47.577z"/>
  <path fill="#9561A8" d="M225.874,47.72l2.104,5.903l2.266-6.161c0.178-0.495,0.353-0.846,0.523-1.052 c0.172-0.206,0.432-0.31,0.781-0.31c0.33,0,0.611,0.111,0.843,0.333s0.347,0.479,0.347,0.771c0,0.114-0.02,0.248-0.061,0.4 c-0.042,0.152-0.09,0.295-0.144,0.428s-0.116,0.286-0.186,0.457l-2.495,6.189c-0.069,0.178-0.16,0.403-0.271,0.676 c-0.11,0.273-0.234,0.506-0.371,0.7c-0.137,0.193-0.305,0.344-0.504,0.452c-0.2,0.108-0.443,0.162-0.729,0.162 c-0.369,0-0.662-0.084-0.881-0.252c-0.219-0.168-0.381-0.353-0.486-0.552c-0.104-0.2-0.28-0.595-0.527-1.186l-2.477-6.122 c-0.057-0.152-0.115-0.305-0.176-0.457s-0.111-0.308-0.152-0.467s-0.063-0.295-0.063-0.409c0-0.178,0.055-0.354,0.162-0.529 c0.108-0.174,0.258-0.317,0.447-0.428c0.191-0.111,0.397-0.167,0.619-0.167c0.432,0,0.729,0.124,0.891,0.372 S225.678,47.136,225.874,47.72z"/>
  <path fill="#9561A8" d="M241.604,52.024h-5.084c0.006,0.59,0.125,1.111,0.356,1.562s0.54,0.79,0.923,1.019 c0.385,0.229,0.809,0.343,1.271,0.343c0.311,0,0.596-0.037,0.853-0.109c0.257-0.073,0.506-0.188,0.747-0.343 c0.241-0.156,0.463-0.322,0.666-0.5s0.467-0.419,0.791-0.724c0.133-0.114,0.324-0.171,0.571-0.171c0.267,0,0.482,0.073,0.647,0.219 s0.248,0.352,0.248,0.619c0,0.235-0.093,0.509-0.277,0.824c-0.184,0.314-0.461,0.616-0.832,0.904 c-0.371,0.289-0.838,0.528-1.4,0.719c-0.562,0.19-1.207,0.286-1.938,0.286c-1.67,0-2.967-0.477-3.895-1.429 c-0.926-0.952-1.39-2.244-1.39-3.875c0-0.768,0.114-1.48,0.343-2.138c0.229-0.657,0.563-1.22,1-1.69s0.977-0.83,1.619-1.081 c0.641-0.251,1.352-0.376,2.133-0.376c1.015,0,1.887,0.214,2.613,0.643c0.727,0.428,1.271,0.982,1.633,1.661 c0.361,0.68,0.543,1.371,0.543,2.076c0,0.654-0.188,1.077-0.563,1.271C242.809,51.927,242.282,52.024,241.604,52.024z M236.52,50.548h4.713c-0.064-0.889-0.304-1.554-0.719-1.995c-0.416-0.441-0.964-0.662-1.643-0.662c-0.648,0-1.18,0.224-1.596,0.671 C236.859,49.01,236.607,49.672,236.52,50.548z"/>
  <g>
    <path fill="#009444" stroke="#369E47" stroke-miterlimit="10" d="M 277.528 40.779 C 296.348 52.602 302.45 72.494 302.45 72.494 C 309.161 87.597 300.767 112.303 300.767 112.303 C 316.719 129.96 311.257 133.488 311.257 133.488 C 307.591 140.324 303.683 135.102 303.683 135.102 C 302.935 121.756 294.956 116.006 294.956 116.006 C 281.959 116.213 267.893 105.937 267.893 105.937 C 253.254 96.25 252.753 69.861 252.753 69.861 C 247.997 35.528 233.309 23.423 233.309 23.423 C 253.889 26.022 277.526 40.779 277.528 40.779 Z M 241.167 27.808 C 240.942 28.135 241.025 28.582 241.351 28.808 L 241.394 28.837 C 242.935 29.898 244.411 31.273 245.769 32.669 C 247.134 34.083 248.413 35.583 249.614 37.144 C 252.015 40.268 254.125 43.616 255.992 47.091 C 259.727 54.047 262.517 61.487 264.661 69.089 C 265.195 70.991 265.692 72.904 266.146 74.827 C 266.688 76.952 267.363 78.851 268.125 80.795 C 269.655 84.642 271.553 88.347 273.838 91.841 C 278.375 98.808 284.677 104.973 292.493 108.685 L 292.526 108.701 C 292.562 108.718 292.599 108.734 292.636 108.75 C 294.102 109.366 295.791 108.676 296.407 107.209 C 297.023 105.742 296.334 104.053 294.867 103.437 C 288.023 100.563 282.16 95.414 277.696 89.193 C 275.455 86.083 273.526 82.71 271.938 79.185 C 271.156 77.439 270.414 75.584 269.889 73.85 C 269.335 71.9 268.738 69.962 268.102 68.036 C 265.553 60.34 262.346 52.829 258.182 45.848 C 256.102 42.36 253.776 39.012 251.153 35.901 C 249.841 34.347 248.45 32.856 246.971 31.453 C 245.471 30.055 243.952 28.739 242.139 27.607 C 241.814 27.406 241.385 27.492 241.167 27.808 Z"/>
  </g>
  <path fill="none" stroke="#FFFFFF" stroke-linecap="round" stroke-linejoin="round" stroke-miterlimit="10" d="M128.379,178.487"/>
</svg>